<svg id="Layer_1" data-name="Layer 1" xmlns="http://www.w3.org/2000/svg" viewBox="0 0 300 300"><defs><style>.cls-1{fill:#f5f5f5;}.cls-2{fill:#28b88d;}</style></defs><g id="Group_2558" data-name="Group 2558"><g id="Group_2557" data-name="Group 2557"><path id="Path_4391" data-name="Path 4391" class="cls-1" d="M195.09,48.66a10.35,10.35,0,0,1,9,9.94A54,54,0,0,1,204,65c-.13,1.78.48,2.22,2.21,2.21,11.59-.08,23.18.07,34.77-.1,5.71-.08,9.47,2.23,12,7.35,8.54,17.26,17.3,34.41,25.87,51.64,1.89,3.79,4.69,6.84,7.18,10.15q5.34,7.11,10.91,14a12.76,12.76,0,0,1,2.91,8.3c0,19.82,0,39.64,0,59.46,0,6.91-4.38,11.25-11.28,11.27-7.78,0-15.57,0-23.36,0a2.46,2.46,0,0,0-2.83,1.91,38.77,38.77,0,0,1-36.46,26c-16.41.08-30.91-10.16-36.69-26a2.31,2.31,0,0,0-2.59-1.88q-24.83.1-49.64,0a2.3,2.3,0,0,0-2.6,1.87,38.83,38.83,0,0,1-36.45,26c-16.41.1-30.78-10-36.71-26a2.47,2.47,0,0,0-2.84-1.9c-6.72.08-13.44,0-20.17,0-6.88,0-11.7-4.39-11.71-10.62s4.79-10.73,11.61-10.74c6.63,0,13.27-.09,19.9.05,1.88,0,2.54-.6,3.12-2.28a38.74,38.74,0,0,1,73.4.24c.49,1.45,1.06,2,2.7,2q24.56-.12,49.11,0c1.66,0,2.23-.59,2.73-2.05a38.71,38.71,0,0,1,73.37-.19c.59,1.71,1.28,2.33,3.12,2.25,3.71-.18,7.43-.12,11.14,0,1.43,0,1.78-.43,1.78-1.8q-.08-21.63,0-43.27a4.32,4.32,0,0,0-1.09-2.86c-3.55-4.52-7.11-9-10.55-13.63a3.83,3.83,0,0,0-3.52-1.69q-34.24.08-68.48,0c-8.07,0-12.19-4.15-12.2-12.28,0-19.91,0-39.82.07-59.73,0-2.52-.77-3-3.08-3q-70.6.09-141.21,0c-7.7,0-12.73-5.3-11.76-12.34a10.26,10.26,0,0,1,8.62-8.79c.8.85,1.83.51,2.76.51q77.14,0,154.29,0C193.27,49.18,194.31,49.54,195.09,48.66Zm58.45,74.65c-5.73-11.42-11.26-22.38-16.71-33.37a2.5,2.5,0,0,0-2.72-1.46c-9.29,0-18.57.06-27.86,0-1.68,0-2.23.36-2.22,2.15q.14,15.12,0,30.25c0,2,.45,2.52,2.48,2.51,14.94-.1,29.89-.06,44.85-.07ZM97.65,235.64a17.35,17.35,0,1,0-17.23-17.52v0a17.36,17.36,0,0,0,17.23,17.5ZM225.78,201a17.35,17.35,0,1,0,17.45,17.31A17.4,17.4,0,0,0,225.78,201Z"/><path id="Path_4392" data-name="Path 4392" class="cls-1" d="M50.69,145c-13.27,0-26.54,0-39.81,0A10.5,10.5,0,0,1,.64,138a10.73,10.73,0,0,1,2.91-11.63,10.6,10.6,0,0,1,7.27-2.77q39.81,0,79.62,0a10.59,10.59,0,0,1,10.86,10.32c0,.12,0,.24,0,.36A10.49,10.49,0,0,1,90.51,145C77.23,145.06,64,145,50.69,145Z"/><path id="Path_4393" data-name="Path 4393" class="cls-1" d="M66.08,86.81h39c6.75,0,11.43,4.31,11.48,10.53s-4.62,10.82-11.46,10.83q-39.42,0-78.84,0a10.67,10.67,0,0,1-3.16-21,15.77,15.77,0,0,1,3.94-.37Q46.57,86.79,66.08,86.81Z"/><path id="Path_4394" data-name="Path 4394" class="cls-1" d="M47.23,181.88c-6.89,0-13.78,0-20.68,0-6.48,0-11.35-4.71-11.29-10.83s4.81-10.55,11.24-10.57q21.09-.06,42.17,0c6.42,0,11.14,4.63,11.15,10.67S75,181.86,68.45,181.88Z"/><path id="Path_4395" data-name="Path 4395" class="cls-1" d="M195.09,48.66c-.78.88-1.82.52-2.74.52q-77.15,0-154.29,0c-.93,0-2,.35-2.76-.5a8.16,8.16,0,0,1,3.4-.36H192A7.06,7.06,0,0,1,195.09,48.66Z"/><path id="Path_4396" data-name="Path 4396" class="cls-2" d="M253.54,123.31h-2.19c-14.95,0-29.91,0-44.85.06-2,0-2.5-.55-2.48-2.51q.16-15.12,0-30.24c0-1.8.54-2.17,2.22-2.16,9.29.08,18.57.06,27.86,0A2.48,2.48,0,0,1,236.83,90C242.28,100.93,247.81,111.89,253.54,123.31Z"/><path id="Path_4397" data-name="Path 4397" class="cls-2" d="M97.65,235.64A17.35,17.35,0,1,1,98,201h0a17.35,17.35,0,1,1-.31,34.69Z"/><path id="Path_4398" data-name="Path 4398" class="cls-2" d="M225.78,201a17.35,17.35,0,1,1-17.37,17.38A17.4,17.4,0,0,1,225.78,201Z"/></g></g></svg>