<svg id="Layer_1" data-name="Layer 1" xmlns="http://www.w3.org/2000/svg" viewBox="0 0 300 300"><defs><style>.cls-1{fill:#28b88d;}.cls-2{fill:#f5f5f5;}.cls-3{fill:#252223;}</style></defs><g id="Group_2555" data-name="Group 2555"><path id="Path_4378" data-name="Path 4378" class="cls-1" d="M92.59,171.38C78.53,158.55,69,144,65,125.82c-1.75-7.84.56-9.19,7.57-8.61,10,.83,19.77-1.1,29.4-3.25a173.05,173.05,0,0,1,77,0c10.77,2.45,21.81,4.55,32.82,3.18,8.69-1.09,8.54,2.9,7.17,9-4,18-13.15,32.9-27.87,45.2,27.19,16.13,45,38.37,52.09,68.57,4,17.28,2.48,34.85,2.86,52.32.16,6.9-4,7.86-9.69,7.81-20.17-.18-40.35-.09-60.53-.09H53.53c-15.11,0-15.21,0-15.18-15.7,0-16.71-1-33.44,3.87-49.87C50.44,206.72,67.63,186.33,92.59,171.38ZM82,190.14c-10.09,5.94-13,13.34-12.68,23.59.74,23.21.54,46.45.06,69.67-.15,7.55,2,9.68,9.58,9.62q63.39-.5,126.8,0c7.24.06,9-2.21,8.84-9.06-.39-24-.8-48,.11-72,.41-10.82-4.55-16.48-13-22.13-2.77,15.17-5.54,29.3-7.87,43.51-1,6.25-3.45,8.79-10.34,8.68-27.41-.44-54.83-.35-82.25-.05-6.71.07-10.2-1.19-11.24-8.84-1.94-14.28-5.22-28.37-8-43.05Z"/><path id="Path_4379" data-name="Path 4379" class="cls-1" d="M140.74.15c11.4,0,22.82-.39,34.2.08,24.74,1,43.65,19.61,45,44.28.6,11.37,0,22.8.31,34.19.15,5.3-1.41,6.3-6.58,5.26a364.88,364.88,0,0,0-147.09.16c-5,1-6.06-.57-6-5,.29-12.91-.41-25.9.79-38.71,2-21.6,20.77-38.9,42.91-40.08C116.4-.3,128.59.24,140.74.24Zm-47.67,61c15.54,12.74,30.08,11.57,38.74-1.76,3.53-5.44,7.25-6.4,12.81-6.3,13.68.22,27.37,0,41,.11,5.77.06,10.24-1.73,10-8-.28-5.92-5.19-6.56-10.12-6.53-13.68.08-27.37-.15-41.05.11-5.67.1-9.23-1.27-12.74-6.56-9.26-13.88-25.61-14.75-36-2.9C105,30.58,115.77,39.56,113.9,46c-2.46,8.47-5.65,18-20.83,15.11Z"/><path id="Path_4380" data-name="Path 4380" class="cls-1" d="M136.81,85.38c26.09-.45,56.57,3.78,86.84,9.75,2.83.56,7.77-.17,7.53,5-.18,4.09-3.8,5.37-7.19,6.27a67.38,67.38,0,0,1-32.79.28,219.9,219.9,0,0,0-101.72.08,65.85,65.85,0,0,1-32.79-.41c-3.36-.93-7-2.1-7-6.3,0-4.94,4.73-4.39,7.68-5A506,506,0,0,1,136.81,85.38Z"/><path id="Path_4381" data-name="Path 4381" class="cls-2" d="M82,190.14c2.82,14.68,6.1,28.78,8,43.05,1,7.64,4.53,8.91,11.24,8.83,27.42-.29,54.84-.38,82.24.06,6.9.11,9.33-2.43,10.35-8.68,2.33-14.21,5.1-28.34,7.87-43.51,8.42,5.65,13.38,11.31,13,22.13-.91,24-.5,48-.11,72,.11,6.85-1.6,9.13-8.84,9.07q-63.4-.53-126.8,0c-7.53.06-9.74-2.07-9.58-9.62.48-23.22.68-46.46-.06-69.67C69,203.48,71.94,196.08,82,190.14Zm6.31,58.44c-6.69.46-10.57,4-10.52,10.7.05,6.29,4.58,9.76,10.17,9.93s10.07-3,10.31-9.5c.25-6.78-3.28-10.42-10-11.13ZM206,259c0-6.79-4.06-10.45-10.52-10.44-6,0-10,4-10.12,10-.1,6.61,4.13,10.76,10.63,10.67,5.85-.08,9.72-3.64,10-10.26Z"/><path id="Path_4382" data-name="Path 4382" class="cls-2" d="M93.07,61.14C108.25,64,111.44,54.5,113.89,46c1.88-6.47-8.86-15.45-18.21-16.74,10.41-11.86,26.77-11,36,2.9,3.52,5.28,7.08,6.66,12.75,6.55,13.67-.25,27.36,0,41.05-.11,4.93,0,9.84.62,10.11,6.53.29,6.3-4.18,8.09-9.94,8-13.68-.15-27.37.11-41-.11-5.56-.09-9.29.86-12.82,6.3C123.16,72.71,108.61,73.88,93.07,61.14Z"/><path id="Path_4383" data-name="Path 4383" class="cls-3" d="M88.34,248.58c6.68.72,10.21,4.35,10,11.13-.24,6.5-4.68,9.67-10.32,9.5s-10.12-3.64-10.16-9.94C77.77,252.63,81.65,249,88.34,248.58Z"/><path id="Path_4384" data-name="Path 4384" class="cls-3" d="M206,259c-.29,6.62-4.16,10.19-10,10.27-6.5.09-10.73-4.07-10.63-10.68.09-6,4.11-10,10.12-10C202,248.56,206,252.22,206,259Z"/></g></svg>