<svg id="Layer_1" data-name="Layer 1" xmlns="http://www.w3.org/2000/svg" viewBox="0 0 300 300"><defs><style>.cls-1{fill:#f5f5f5;}.cls-2{fill:#28b88d;}</style></defs><g id="Group_2559" data-name="Group 2559"><path id="Path_4399" data-name="Path 4399" class="cls-1" d="M149.78,213.58l-109.69,0c-16.26,0-23-6.63-23.06-22.76q-.12-70.18,0-140.36C17.1,35.14,24,28,39.38,28q110.26-.19,220.55,0c15.39,0,22.4,6.88,22.46,22.36q.24,70.77-.06,141.53c-.05,15.11-7.19,21.7-22.85,21.73Q204.63,213.67,149.78,213.58Zm19.87-79.91c10.74,8.67,17.08,18.74,16.8,31.87-.13,5.49,2.27,6.39,7,6.33,16.9-.21,33.8-.27,50.7,0,6.76.12,8.89-2.69,8.86-9.12q-.25-50.7,0-101.39c0-6.2-1.67-9.46-8.61-9.45q-94.32.18-188.63-.05c-6.41,0-9.22,2.29-9.19,9q.27,51.27,0,102.56c0,5.94,2.27,8.5,8.37,8.42,16.9-.21,33.8-.25,50.69,0,5.36.08,7.83-1.14,7.65-7.13-.38-12.75,5.17-22.91,15.78-29.82,5.13-3.34,3.22-5.07.31-8.67-8.88-10.95-9.14-24.73-1.38-34.7A27.36,27.36,0,0,1,159.78,83c12.56,5,17.43,14.09,15.86,30-.15,1.51-1.12,3.2,1,3.83,2.43.72,3.19-.78,3.76-3C184,100.14,176,83.66,162.59,77.3c-13-6.19-29-1.85-37.8,10-6.07,8.15-6.44,17.38-6.21,26.93.08,3.29,2,8.06-1.72,9.6-4.41,1.83-9.3.14-13.15-3.11A15.43,15.43,0,0,1,101.62,99a15.19,15.19,0,0,1,3.9-3.38c4.26-2.7,6.71-6,9.08-10.07,16-27.91,54.18-27.88,70.43.05,2.38,4.08,4.66,7.44,9,10.11,8.58,5.26,10.42,17.4,2.89,23.11s-15.44,12.48-27.29,14.83Z"/><path id="Path_4400" data-name="Path 4400" class="cls-1" d="M149.82,257.84H26.06C5.94,257.84.14,251.63,0,232c-.06-8.5,3.13-10.79,11.09-10.71,29.07.32,58.15.12,87.22.12,61.69,0,123.37-.1,185.05.17,5.77,0,14.18-4,16.05,6.63,2.41,13.59-2.73,25.44-13,28.31-4.44,1.24-9.31,1.25-14,1.26Q211.11,257.92,149.82,257.84Z"/><path id="Path_4401" data-name="Path 4401" class="cls-2" d="M169.65,133.67c11.85-2.34,19.62-9,27.29-14.84s5.69-17.84-2.89-23.1c-4.36-2.67-6.64-6-9-10.12-16.25-27.93-54.39-27.95-70.43,0-2.37,4.12-4.82,7.36-9.08,10.06a15.43,15.43,0,0,0-1.81,25.11c3.85,3.25,8.74,4.94,13.15,3.11,3.71-1.54,1.8-6.31,1.72-9.6-.23-9.55.14-18.79,6.21-26.93,8.84-11.87,24.78-16.21,37.8-10,13.4,6.36,21.38,22.84,17.82,36.49-.57,2.2-1.33,3.71-3.76,3-2.13-.63-1.16-2.32-1-3.83,1.57-15.87-3.3-25-15.86-30A27.36,27.36,0,0,0,128,91.54c-7.76,10-7.5,23.75,1.38,34.7,2.91,3.59,4.82,5.33-.31,8.67-10.61,6.9-16.16,17.07-15.78,29.82.18,6-2.29,7.21-7.65,7.13-16.89-.25-33.79-.22-50.69,0-6.1.08-8.39-2.48-8.37-8.43q.16-51.27,0-102.56c0-6.68,2.78-9,9.19-9q94.32.18,188.63.05c6.94,0,8.63,3.24,8.61,9.45q-.22,50.69,0,101.38c0,6.43-2.09,9.25-8.86,9.13-16.89-.31-33.8-.25-50.69,0-4.76.06-7.15-.84-7-6.34C186.73,152.41,180.39,142.34,169.65,133.67Z"/></g></svg>