<svg id="Layer_1" data-name="Layer 1" xmlns="http://www.w3.org/2000/svg" viewBox="0 0 296.74 265.26"><defs><style>.cls-1{fill:#f5f5f5;}.cls-2{fill:#28b88d;}</style></defs><g id="Group_2556" data-name="Group 2556"><path id="Path_4385" data-name="Path 4385" class="cls-1" d="M150.55,291.18q-58.76,0-117.51,0c-15.29,0-19.9-4.47-20-19.56-.16-26.93.23-53.86-.22-80.78-.12-7.64,2.12-9.55,9.65-9.44,31.82.43,63.65.6,95.46-.08,10-.22,13.23,3.06,11.72,12.3-1.74,10.66,1.72,16.17,13.42,13.92,2-.38,4.07,0,6.11-.06,6.86-.27,15.19,1.71,20.15-1.51s1.6-12.1,1.74-18.45c.11-5.18,2.27-5.93,6.7-5.92,33.86.12,67.73,0,101.59,0,5.94,0,8.36,2.42,8.28,8.9-.37,27.34,0,54.67-.2,82-.09,14.26-4.75,18.68-19.39,18.71q-58.76.12-117.51,0Z" transform="translate(-1.84 -26.01)"/><path id="Path_4386" data-name="Path 4386" class="cls-1" d="M150.44,128.25H276.52c17.74,0,21.93,4.07,22,21.23.14,22.22.14,22.2-22.18,22.19-31.42,0-62.85-.47-94.25.23-9.57.21-12.5-2.72-10.92-11.56,1.76-9.84-1.68-14.57-12.27-12.75-3.18.55-6.52.1-9.78.1-17.79,0-18.12,0-19.32,17.55-.4,5.81-2.91,6.5-7.6,6.49-37.54-.09-75.08-.15-112.62.07-6,0-7.21-2-7.44-7.74-1.4-34.13,0-35.79,34.41-35.79Q93.52,128.24,150.44,128.25Z" transform="translate(-1.84 -26.01)"/><path id="Path_4387" data-name="Path 4387" class="cls-2" d="M181.4,75.46C191.89,58,206,50.29,223.22,48.81c18.36-1.57,36.72-5.37,55.33-2,2.43.44,5.2-.29,5.71,2.83.93,5.62,1.28,11.33,2.09,17,1.3,9.13-7.12,5.2-10.27,8-4.14,3.71-7.43,7.55-13.72,7.65-4.5.08-2.66,4.23-2.45,6.7.49,5.67,2.28,11.38,1.83,16.93-.34,4.19,6.93,12.52-4.63,12.35-7.6-.11-19.54,4-16.66-10.78,3.06-15.73-8.3-22.89-16.41-32.16-11.33-13-23.77-4.71-35.9-1.47C186.71,74.24,185.26,74.55,181.4,75.46Z" transform="translate(-1.84 -26.01)"/><path id="Path_4388" data-name="Path 4388" class="cls-2" d="M209.63,118.3c-13.64,0-25.31-.12-37,.06-4.32.07-6.54-2.77-9.12-5.33-6.35-6.31-12.67-12.67-19.09-18.92-8.18-8-14.34-16.76-29.6-13.23-14,3.25-25.39-9.82-26.43-24.65,9.15,7.08,26.76,7.8,32.56,1.32,6.05-6.74,4.8-23-2.41-31.54,17.26.61,29,15.43,24.8,33-1.52,6.34-.13,9.64,4.11,13.58C155,79.53,161.93,87,169.17,94.14c7.06,7,13.15,15,25.41,13C200.23,106.26,205,110.87,209.63,118.3Z" transform="translate(-1.84 -26.01)"/><path id="Path_4389" data-name="Path 4389" class="cls-2" d="M109.52,118.28c-17.41.37-32.63.55-47.7-1.75-5.57-.86-10.09-4.26-3.14-9.23,8.89-6.36,4.88-10.89-1-15.63-11.12-8.88-17.75-22.92-34-26.24-6-1.23-7.88-10.92-9.83-17.3-1.19-3.89,3.76-8.8,7.32-7,7.25,3.69,16,4.39,19.38,15.69C45,71.9,60.22,80,70.9,90.87c4,4.11,6.14-3.1,8.95-5.26,3.07-2.34,7.81-5.47,7.85.17C87.8,101,100.72,106.68,109.52,118.28Z" transform="translate(-1.84 -26.01)"/><path id="Path_4390" data-name="Path 4390" class="cls-2" d="M139.45,177.6c0-2.44.37-5-.08-7.31-2.12-11,2.63-13.72,13.16-13.22,7.92.38,9.73,3,9,10.08-.57,5.64-.11,11.39-.11,17.09,0,12.7-6.48,17.22-18.57,13.39-3.17-1-3.39-2.89-3.4-5.38C139.45,187.36,139.46,182.48,139.45,177.6Z" transform="translate(-1.84 -26.01)"/></g></svg>