<svg id="Layer_1" data-name="Layer 1" xmlns="http://www.w3.org/2000/svg" viewBox="0 0 300 300"><defs><style>.cls-1{fill:#28b88d;}.cls-2{fill:#f5f5f5;}.cls-3{fill:#0e0e0e;}</style></defs><g id="Group_2554" data-name="Group 2554"><path id="Path_4369" data-name="Path 4369" class="cls-1" d="M135.94.08c20.65,0,41.29-.14,61.93,0,31,.25,52.89,21.83,53.43,52.67.24,14,.2,28,0,42-.39,31.29-22.28,53.34-53.84,53.62-38,.33-75.94.37-113.91-.12-9.47-.12-16.9,2.16-23.81,8.61S44.88,169,37.41,175c-2.42,1.94-4.81,3.59-7.8,1-2.57-2.19-1.5-4.56-.42-7,.9-2,1.52-4.16,2.54-6.11C38.84,149.31,43,138,29.37,123.49c-14.59-15.6-12.75-80.7-.91-99C38.57,8.88,53.1.42,71.8.15,93.18-.15,114.56.08,135.94.08ZM66.48,67.86C53.35,70.92,49.3,80,50.17,92.37a64.89,64.89,0,0,1-.06,12.15c-.73,6,2.34,8,7.46,8.28,9.57.44,19.15,1.11,28.72,1,23.29-.39,22.94-.56,23.18-23.3.14-12.25-4.66-20-16.91-22.57,10.21-14.44,10.38-25.08.85-33.86a20.35,20.35,0,0,0-26.31-.89C57.1,41.26,56.81,52.51,66.48,67.86ZM172.32,51.34v-.08H208.7c3.67,0,8.13.55,7.79-4.95-.29-4.72-4.55-3.91-7.69-3.92q-36.93-.12-73.87,0c-3.07,0-7.41-.92-7.82,3.81-.47,5.57,4.16,5.1,7.73,5.12,12.49.11,25,.05,37.48.05Zm-1,24.14c-12.14,0-24.27-.07-36.4,0-3.09,0-7.41-1-7.82,3.79-.47,5.55,4,5.13,7.68,5.14q37,.08,73.91,0c3.55,0,8.14.58,7.8-5-.29-4.72-4.49-4-7.67-4-12.5-.07-25,0-37.5,0Z"/><path id="Path_4370" data-name="Path 4370" class="cls-2" d="M185.78,154.5c15.86,0,31.71-.14,47.56,0,27.72.29,46.2,19,46.32,46.78,0,10.33.11,20.65,0,31-.09,11.08-3.14,21.43-11,29.26-5,5-4.59,9.11-1.77,14.51a138,138,0,0,1,5.7,13.17c1.29,3.25,1.64,6.68-1.44,9.11-3.39,2.68-6.87,1.91-10-.76a14,14,0,0,1-1.77-1.32C244,278,223.84,275.7,201.58,277.07c-21.3,1.31-42.74.45-64.12.22C110.43,277,92,258.16,91.86,231q-.1-15.48,0-31c.21-26,18.19-44.76,44.15-45.47,16.58-.46,33.18-.09,49.77-.09Zm62.65,115.57c-1.3-7.19,1.74-10.42,5.71-13.38A27.68,27.68,0,0,0,265.71,235c.5-12.48.91-25.06.05-37.5-1.2-17.29-13.39-28.88-30.16-29q-49.66-.48-99.37,0c-18,.18-30.14,12.7-30.72,30.8-.32,9.92-.14,19.87,0,29.81.28,22.62,12.42,34.63,35,34.66,30.18,0,60.36.13,90.53-.11C237.12,263.57,242.67,264.05,248.43,270.07Z"/><path id="Path_4371" data-name="Path 4371" class="cls-3" d="M66.48,67.86c-9.66-15.35-9.37-26.6.62-34.73A20.35,20.35,0,0,1,93.41,34c9.53,8.78,9.36,19.42-.85,33.86,12.26,2.61,17,10.32,16.92,22.57-.25,22.74.1,22.91-23.19,23.3-9.57.16-19.15-.51-28.72-1-5.12-.23-8.19-2.33-7.46-8.28a65,65,0,0,0,.07-12.16C49.3,80,53.36,70.92,66.48,67.86Z"/><path id="Path_4372" data-name="Path 4372" class="cls-3" d="M172.32,51.35c-12.5,0-25,.06-37.48,0-3.57,0-8.2.44-7.73-5.12.41-4.74,4.75-3.81,7.83-3.82q36.93-.12,73.86,0c3.14,0,7.4-.8,7.69,3.92.34,5.5-4.12,4.95-7.79,4.95q-18.19,0-36.38,0Z"/><path id="Path_4373" data-name="Path 4373" class="cls-3" d="M171.33,75.5c12.5,0,25,0,37.5,0,3.17,0,7.38-.72,7.67,4,.34,5.55-4.25,5-7.8,5q-37,.08-73.91,0c-3.63,0-8.15.41-7.68-5.14.41-4.77,4.73-3.75,7.82-3.79C147.06,75.42,159.19,75.49,171.33,75.5Z"/><path id="Path_4374" data-name="Path 4374" class="cls-1" d="M248.43,270.07c-5.76-6-11.31-6.5-17.39-6.46-30.18.24-60.36.14-90.54.11-22.59,0-34.73-12-35-34.66-.13-9.93-.31-19.88,0-29.81.58-18.09,12.76-30.62,30.73-30.8q49.67-.49,99.37,0c16.77.16,29,11.75,30.15,29,.86,12.45.45,25-.05,37.51a27.67,27.67,0,0,1-11.56,21.67C250.17,259.65,247.13,262.88,248.43,270.07Zm-18.17-22.7c3.61-.26,9.47-1,15.33-1,5.57,0,8-2,7.47-7.83-.47-4.73.05-9.55-.17-14.32-.37-7.84-6.48-10.89-12.26-14.15,3.77-5.46,7-11,4.68-18.08-3-9.18-12.34-14.2-20.85-11-9.23,3.5-13,13-9.86,22.67.75,2.33,7.39,4.21,1,8.55-8.15,5.52-13,21.84-8.59,30.18,3.79,7.15,12.44,3.14,18.79,4.71A39.09,39.09,0,0,0,230.26,247.37ZM158,222.62v0c-10.29,0-20.57-.17-30.85.11-2.6.07-6.26-.11-6.72,4-.48,4.36,3.07,4.88,5.77,4.91,20.56.23,41.12.22,61.69.19a5.53,5.53,0,0,0,5.58-5.48v0c.14-3.31-3.24-3.68-5.73-3.72-9.91-.15-19.83-.07-29.74-.07Zm-1-25.39c9.94,0,19.89,0,29.83,0,3.51,0,7.11-.45,6.82-5.08-.25-4.07-3.84-3.91-6.73-3.92-19.52-.07-39.05,0-58.57-.07-3.06,0-6.49.09-6.8,3.87-.35,4.4,3,5.24,6.71,5.22,9.59,0,19.16,0,28.74,0Z"/><path id="Path_4375" data-name="Path 4375" class="cls-2" d="M230.26,247.37a39.39,39.39,0,0,1-4.47-.25c-6.34-1.57-15,2.44-18.78-4.71-4.42-8.34.43-24.66,8.58-30.18,6.4-4.34-.24-6.22-1-8.55-3.1-9.67.63-19.17,9.86-22.67,8.51-3.22,17.87,1.8,20.84,11,2.31,7.1-.9,12.62-4.67,18.08,5.78,3.26,11.89,6.3,12.25,14.15.22,4.77-.29,9.59.18,14.32.58,5.88-1.9,7.81-7.47,7.83C239.73,246.39,233.87,247.11,230.26,247.37Z"/><path id="Path_4376" data-name="Path 4376" class="cls-2" d="M158,222.62c9.91,0,19.83-.08,29.74.07,2.49,0,5.87.41,5.73,3.72a5.52,5.52,0,0,1-5.55,5.5h0c-20.57.05-41.13.05-61.69-.18-2.7,0-6.25-.56-5.77-4.91.46-4.16,4.12-4,6.72-4,10.27-.27,20.56-.11,30.85-.11Z"/><path id="Path_4377" data-name="Path 4377" class="cls-2" d="M157,197.22c-9.58,0-19.16,0-28.74,0-3.69,0-7.06-.82-6.71-5.22.31-3.79,3.73-3.88,6.8-3.87,19.52,0,39,0,58.57.07,2.89,0,6.48-.15,6.73,3.92.29,4.63-3.32,5.07-6.82,5.08C176.9,197.25,167,197.23,157,197.22Z"/></g></svg>