<svg id="Layer_1" data-name="Layer 1" xmlns="http://www.w3.org/2000/svg" viewBox="0 0 300 300"><defs><style>.cls-1{fill:#030303;}.cls-2{fill:#111;}</style></defs><g id="Group_2565" data-name="Group 2565"><path id="Path_4409" data-name="Path 4409" class="cls-1" d="M189.7,5.25c0,13.78.17,26.44-.08,39.1a15.31,15.31,0,0,0,6.17,13.51c7.59,6,14.84,12.35,22.28,18.51,6.78,5.62,10.77,5.68,17.43.21,7.75-6.38,15.37-12.93,23.2-19.22a13.46,13.46,0,0,0,5.38-11.5C264,32.92,264.14,20,264.21,7c0-.14.19-.29.36-.54,1.66-.63,2.24,1,3.08,1.81,28,27.13,21.59,74.23-12.88,92.59-5.33,2.83-6.82,6.12-6.8,11.77q.25,81.43.08,162.85c0,14.59-8.53,23.9-21.66,24-12.11.06-20.58-8.37-20.64-20.89-.1-20.66,0-41.33,0-62,0-34.78-.08-69.55.16-104.32,0-5.51-1.59-8.58-6.61-11.27C163.33,81.69,158,32.92,189.7,5.25ZM232.28,268c0-3.47.07-6.95,0-10.42S230.52,252,227,251.9s-5.25,2.11-5.27,5.53c-.06,6.76,0,13.51,0,20.26,0,3.4,1.61,5.62,5.15,5.68s5.22-2.18,5.35-5.52S232.27,271.29,232.28,268Z"/><path id="Path_4410" data-name="Path 4410" class="cls-1" d="M152.66,140.9c0,36.69-.08,73.39.1,110.08,0,4.5-.63,6.21-5.77,6.17-35.15-.27-70.3-.22-105.44,0-4.19,0-5.47-.82-5.46-5.3q.24-111.24,0-222.47c0-4.68,1.33-5.69,5.78-5.67q52.73.27,105.45,0c4.32,0,5.47,1,5.45,5.42C152.58,66.36,152.66,103.63,152.66,140.9ZM94.1,135A47.6,47.6,0,1,0,46.77,87.13v.19A47.49,47.49,0,0,0,94.07,135ZM46.82,193.3a47.6,47.6,0,1,0,47.63-47.57h-.09A47.71,47.71,0,0,0,46.82,193.3Z"/><path id="Path_4411" data-name="Path 4411" class="cls-2" d="M163.88,21.32c-1.08-7.24-2-8.09-9.39-8.09h-120c-7.93,0-8.88,1-8.88,9.12V258.23c0,8.45.93,9.4,9.2,9.4H154.22c8,0,9-1,9-9q0-89.25,0-178.5c0-.52.08-1,.22-2.64,5.48,9.78,11.17,17.57,11,29.33-.81,53.89-.35,107.8-.36,161.69,0,8.88-1,9.87-10.06,9.87H24.3c-8.29,0-9.49-1.16-9.49-9.26V11.78c0-8,1.17-9.16,8.91-9.16q70.71,0,141.43,0a14.82,14.82,0,0,1,4.6.21c2.84,1,4.95,2.47,2.21,5.84A91,91,0,0,0,163.88,21.32Z"/><path id="Path_4412" data-name="Path 4412" class="cls-1" d="M104.91,87.17a10.61,10.61,0,1,1,0-.44C104.9,86.88,104.9,87,104.91,87.17Z"/><path id="Path_4413" data-name="Path 4413" class="cls-2" d="M63.42,108.07A58.73,58.73,0,0,1,60,101.19c-1-3-3.61-6.62-1.26-9.07,3.11-3.27,8-3.38,12.51-3.09,1.63.11,2.24,1,2.49,2.56.29,1.87,1.16,3.5-1,5C68.86,99.32,66.37,103.28,63.42,108.07Z"/><path id="Path_4414" data-name="Path 4414" class="cls-2" d="M114.45,117.92a11.32,11.32,0,0,1-5.56,3.57c-9.67,4.18-13.76,1.18-13.09-9.53.11-1.73,0-3.58,2.46-3.84,1.8-.19,3.55-1.43,5.15.8A32.31,32.31,0,0,0,114.45,117.92Z"/><path id="Path_4415" data-name="Path 4415" class="cls-2" d="M73.62,56.51a64.26,64.26,0,0,1,6.62-3.23C83.37,52.22,87,49.34,89.81,52c3.08,2.92,3.19,7.63,3.06,11.94-.06,1.87-1,2.6-2.83,2.92s-3.19,1.17-4.59-.76A36,36,0,0,0,73.62,56.51Z"/><path id="Path_4416" data-name="Path 4416" class="cls-2" d="M101.71,51.46a18.48,18.48,0,0,1,8.67,2.68c2.32,1.32,6.42,1.8,5.92,5.25a14.06,14.06,0,0,1-7.74,10.88,4,4,0,0,1-5.25-4.61A40.58,40.58,0,0,0,101.71,51.46Z"/><path id="Path_4417" data-name="Path 4417" class="cls-2" d="M125.05,67.22a18.45,18.45,0,0,1,4,7.48c.83,2.78,3.43,6.24.55,8.48a15.7,15.7,0,0,1-12.71,2.55c-2.66-.53-3.25-5.34-.86-7.37A44.88,44.88,0,0,0,125.05,67.22Z"/><path id="Path_4418" data-name="Path 4418" class="cls-2" d="M130.47,94.69a33.66,33.66,0,0,1-5.23,13.24,3,3,0,0,1-4.08,1.35,2.58,2.58,0,0,1-.32-.18,20.88,20.88,0,0,1-8-5.47c-.88-1-2.8-1.9-1.41-3.76,1.17-1.55,1.5-4,4.49-3.57A33.58,33.58,0,0,0,130.47,94.69Z"/><path id="Path_4419" data-name="Path 4419" class="cls-2" d="M87.17,123.87c-3-.91-4.84-1.34-6.61-2-9.9-3.91-10.62-8.79-2.39-16,1.29-1.13,2.44-2.51,4.43-1,1.51,1.16,3.29,1.78,2.87,4.38C84.75,113.82,85.71,118.34,87.17,123.87Z"/><path id="Path_4420" data-name="Path 4420" class="cls-1" d="M58.43,79.91a30.74,30.74,0,0,1,5-12.88,2.91,2.91,0,0,1,3.81-1.54,2.34,2.34,0,0,1,.49.27,23.67,23.67,0,0,1,8,5.41c1.09,1.21,2.75,2.35,1.16,4.34-1.13,1.41-1.57,3.53-4.23,3C68,77.62,63.4,79,58.43,79.91Z"/><path id="Path_4421" data-name="Path 4421" class="cls-2" d="M94.6,182.71a10.68,10.68,0,1,1-10.74,10.61v-.11A10.69,10.69,0,0,1,94.6,182.71Z"/><path id="Path_4422" data-name="Path 4422" class="cls-2" d="M115.28,224.29c-2.91,1.44-4.74,2.47-6.67,3.28-9.52,4-13.2,1.25-12.75-9.37.07-1.72-.06-3.6,2.21-4.12,2-.46,4-1.22,5.63,1.09A33.65,33.65,0,0,0,115.28,224.29Z"/><path id="Path_4423" data-name="Path 4423" class="cls-2" d="M57.74,186.37a84.8,84.8,0,0,1,3-8.21c1.33-2.65,2.08-7.08,5.28-6.82a14,14,0,0,1,11.09,7.5,4,4,0,0,1-4,5.67A44.11,44.11,0,0,0,57.74,186.37Z"/><path id="Path_4424" data-name="Path 4424" class="cls-2" d="M130.46,200.63a32.11,32.11,0,0,1-4.81,12.69,3.36,3.36,0,0,1-4.32,2,3.5,3.5,0,0,1-.85-.46,23.44,23.44,0,0,1-7.53-5.23c-1.08-1.19-2.92-2.3-1.19-4.33,1.16-1.36,1.44-3.58,4.16-3.21A33.21,33.21,0,0,0,130.46,200.63Z"/><path id="Path_4425" data-name="Path 4425" class="cls-2" d="M73.67,162.62A51.51,51.51,0,0,1,80,159.33c3.17-1.09,6.93-4,9.66-1.76,3.24,2.7,3.38,7.53,3.35,11.83,0,1.68-.51,3.09-2.43,3.33-1.61.2-3.31,1.37-4.76-.5A34.67,34.67,0,0,0,73.67,162.62Z"/><path id="Path_4426" data-name="Path 4426" class="cls-2" d="M101.78,157.43a19.91,19.91,0,0,1,9.62,3.16c2,1.25,5.92,1.56,4.92,5.24-1.23,4.51-3.65,8.86-8.12,10.54a4,4,0,0,1-4.84-4.71A39.81,39.81,0,0,0,101.78,157.43Z"/><path id="Path_4427" data-name="Path 4427" class="cls-2" d="M125.13,173.25a15.36,15.36,0,0,1,3.73,6.54c1,3,3.62,6.67,1.13,9a13.41,13.41,0,0,1-13,2.62,3.86,3.86,0,0,1-1.28-6.72A53.27,53.27,0,0,0,125.13,173.25Z"/><path id="Path_4428" data-name="Path 4428" class="cls-2" d="M87.3,229.92c-2.92-1-4.76-1.48-6.52-2.18C70.65,223.68,69.92,219.4,78.1,212c1.19-1.09,2.3-2.87,4.34-1.24,1.4,1.12,3.58,1.49,3.14,4.18C84.79,219.67,85.81,224.35,87.3,229.92Z"/><path id="Path_4429" data-name="Path 4429" class="cls-2" d="M63.74,213.52A14.75,14.75,0,0,1,60,207c-1-3-3.63-6.62-1.15-9a13.31,13.31,0,0,1,13-2.66,3.86,3.86,0,0,1,2.58,4.82,3.82,3.82,0,0,1-1.28,1.9A53.93,53.93,0,0,0,63.74,213.52Z"/></g></svg>