<svg id="Layer_1" data-name="Layer 1" xmlns="http://www.w3.org/2000/svg" viewBox="0 0 300 300"><defs><style>.cls-1{fill:#030303;}</style></defs><g id="Group_2572" data-name="Group 2572"><g id="Group_2570" data-name="Group 2570"><path id="Path_4458" data-name="Path 4458" d="M199.11,60.93c-7.88,0-15.77-.12-23.65,0a7.51,7.51,0,0,1-6.64-11.49c8-13.68,15.9-27.47,23.84-41.21a7.33,7.33,0,0,1,9.94-2.95,7.41,7.41,0,0,1,2.9,2.87q12.06,20.78,24,41.62A7.32,7.32,0,0,1,223,60.92Q211.07,61,199.11,60.93Zm0-4.22h23.83a3.15,3.15,0,0,0,3.18-2,3.63,3.63,0,0,0-.58-3.45q-7.38-12.72-14.72-25.46l-8.88-15.36a3.08,3.08,0,0,0-3.41-1.7,3.36,3.36,0,0,0-2.4,1.93q-4.71,8.19-9.44,16.37L172.51,51.6a3.51,3.51,0,0,0-.62,2.27,3.18,3.18,0,0,0,3.49,2.84h0q11.87,0,23.73,0Z"/><path id="Path_4459" data-name="Path 4459" d="M202.45,26.57a112.76,112.76,0,0,1-1,12,13.75,13.75,0,0,1-.36,1.57,2.06,2.06,0,0,1-4,0,38.63,38.63,0,0,1-1-7.42c-.27-3.5-.44-7-.45-10.52a10.44,10.44,0,0,1,0-1.25,3.38,3.38,0,0,1,3.35-3.18A3.33,3.33,0,0,1,202.49,21,51.94,51.94,0,0,1,202.45,26.57Z"/><path id="Path_4460" data-name="Path 4460" d="M203,49.11A3.91,3.91,0,0,1,195.2,49h0a3.91,3.91,0,0,1,7.82.09Z"/></g><path id="Path_4461" data-name="Path 4461" d="M259.72,70.8h.75V184.22c-.34,0-.69,0-1.05,0H138.92c-1.18,0-1.18,0-1.18-1.19V89.12a3.64,3.64,0,0,0,0-.66c-.05-.46.19-.58.6-.63,3.62-.49,7.24-1,10.85-1.5,4.77-.66,9.54-1.3,14.31-2l14.31-2,15.62-2.15c4.77-.66,9.53-1.35,14.3-2l15.62-2.15c6.11-.85,12.22-1.72,18.33-2.56,5.67-.79,11.35-1.56,17-2.36C259,71.08,259.46,71.17,259.72,70.8Z"/><path id="Path_4462" data-name="Path 4462" d="M260.47,193.67V297.45c0,.37-.26.11-.38.19l-5-.74-14.32-2-15.61-2.18c-4.77-.67-9.54-1.31-14.31-2s-9.54-1.34-14.31-2l-15.62-2.15-14.31-2c-4.76-.66-9.54-1.3-14.31-2L139,280.8c-1.23-.17-1.24-.15-1.24-1.38v-84.5c0-1.22,0-1.22,1.26-1.22H259.34C259.72,193.7,260.09,193.68,260.47,193.67Z"/><path id="Path_4463" data-name="Path 4463" d="M33.62,102.56l9.08-1.21,10.47-1.43,12-1.63,10.39-1.4L87.32,95.3l10.57-1.44,11.88-1.61,10.3-1.4,7.76-1,.37,0a2.18,2.18,0,0,1,.09,1v92.81c0,.7,0,.7-.73.71H34.65l-1,0Z"/><path id="Path_4464" data-name="Path 4464" d="M33.62,193.67l1.14,0h92.32c1.41,0,1.21-.19,1.21,1.19v82.7a2.76,2.76,0,0,1-.1,1.18l-3.63-.47-13.66-1.85-14.6-2-11.79-1.58-13.28-1.81q-5.9-.81-11.79-1.59l-11.88-1.62c-3.47-.47-6.93-1-10.39-1.39a19.4,19.4,0,0,0-3.56-.39Z"/><g id="Group_2571" data-name="Group 2571"><path id="Path_4465" data-name="Path 4465" class="cls-1" d="M109.89,32.82A30.49,30.49,0,1,1,79.4,2.35h.07A30.51,30.51,0,0,1,109.89,32.82ZM79.38,59.1A26.27,26.27,0,1,0,53.14,32.81v0A26.26,26.26,0,0,0,79.38,59.1Z"/><path id="Path_4466" data-name="Path 4466" class="cls-1" d="M66.79,17a3.65,3.65,0,0,1,2.47,1.18c3.14,3.18,6.33,6.31,9.46,9.5.57.58.85.53,1.39,0,3.12-3.17,6.28-6.3,9.42-9.44A3.18,3.18,0,1,1,94,22.72c-3.17,3.17-6.33,6.35-9.52,9.5-.5.49-.49.75,0,1.24,3.26,3.21,6.48,6.45,9.71,9.68a3.06,3.06,0,0,1,.85,3.3,3,3,0,0,1-2.54,2.15,3.18,3.18,0,0,1-2.88-1.07c-3.16-3.18-6.35-6.32-9.49-9.52-.6-.62-.89-.56-1.46,0-3.16,3.22-6.37,6.4-9.56,9.59a3,3,0,0,1-3.4.82,3,3,0,0,1-2.07-2.6A3.22,3.22,0,0,1,64.71,43c3.2-3.18,6.37-6.39,9.59-9.55.55-.55.51-.81,0-1.32-3.24-3.19-6.45-6.42-9.66-9.63A3.11,3.11,0,0,1,63.86,19,3.19,3.19,0,0,1,66.79,17Z"/></g></g></svg>