<svg id="Layer_1" data-name="Layer 1" xmlns="http://www.w3.org/2000/svg" viewBox="0 0 300 300"><defs><style>.cls-1{fill:#050506;}</style></defs><path id="Path_4144" data-name="Path 4144" class="cls-1" d="M0,246.66c5.48-5.76,10.26-12.11,15.42-18.15,3.76-4.41,7.38-8.95,11.13-13.37a5.23,5.23,0,0,0,1.23-3.69q0-70-.05-140.09c0-5.12,1.54-9.18,6.27-11.68a12.89,12.89,0,0,1,6.27-1.09H258.55a13.94,13.94,0,0,1,6.33.88A10.93,10.93,0,0,1,271.5,69c.08,1,.06,2.07.06,3.1q0,69.45,0,138.9a6.54,6.54,0,0,0,1.49,4.57q12.75,15.14,25.42,30.36a6.47,6.47,0,0,0,.88.77v3.82c-1.35,2.13-1.86,4.67-3.49,6.66-3.94,4.81-9.1,6.46-15.19,6.46q-131.17-.09-262.35,0c-.88,0-1.75,0-2.63-.1C8.45,262.86,3.6,259.1,1,252.4c-.21-.54,0-1.36-1-1.44ZM149.67,68.48H54.53q-11.19,0-11.2,11.13,0,56.53,0,113.06c0,7.38,3.77,11.13,11.21,11.17,4.78,0,9.56,0,14.34,0H244.82c7.39,0,11.2-3.79,11.2-11.17q0-56.65,0-113.3a11.76,11.76,0,0,0-.69-4.7c-2-4.65-5.72-6.22-10.53-6.21q-47.55.06-95.12,0ZM195.31,247c-2.45-2.95-4.69-5.49-6.72-8.18a4.47,4.47,0,0,0-4-1.89c-22.53.06-45.05.11-67.58,0-3.33,0-5.79.65-7.57,3.54-1.41,2.3-3.69,4-5,6.57ZM149.6,258.11h20.31c3.18,0,4.64-.85,4.71-2.75s-1.36-2.78-4.64-2.78q-20.31,0-40.62,0a10.87,10.87,0,0,0-2.61.21,2.54,2.54,0,0,0-1.92,3,2.61,2.61,0,0,0,.42.93c.78,1.29,2,1.38,3.32,1.37h21Z"/></svg>