<svg id="Layer_1" data-name="Layer 1" xmlns="http://www.w3.org/2000/svg" viewBox="0 0 300 300"><defs><style>.cls-1{fill:#0b0c0c;}</style></defs><g id="Group_2855" data-name="Group 2855"><path id="Path_4900" data-name="Path 4900" class="cls-1" d="M149.59,1A148.42,148.42,0,1,1,1.16,149.41v-.19A148.88,148.88,0,0,1,149.59,1ZM150,31a114.45,114.45,0,1,0,1.15,0H150Z"/><path id="Path_4901" data-name="Path 4901" class="cls-1" d="M164.58,123c6.93-2.4,11.78-7.34,18.35-9a15.21,15.21,0,0,1,18.62,7.73,14.67,14.67,0,0,1-6.82,19.51c-11.69,7-23.36,14-35.35,20.44a16.09,16.09,0,0,1-25.15-14.8c1.14-23.09.24-46.29.32-69.43a15.42,15.42,0,0,1,13-17,15.14,15.14,0,0,1,16.91,13.14A15.44,15.44,0,0,1,164.5,77c.16,13,0,25.93,0,38.89Z"/></g></svg>