<svg id="Layer_1" data-name="Layer 1" xmlns="http://www.w3.org/2000/svg" viewBox="0 0 300 300"><defs><style>.cls-1{fill:#010101;}</style></defs><g id="Group_2509" data-name="Group 2509"><path id="Path_4147" data-name="Path 4147" class="cls-1" d="M0,150V25.59c0-6.23,2.14-8.35,8.44-8.35H76.06c6.13,0,8.35,2.19,8.35,8.25V274.55c0,6-2.17,8.2-8.12,8.2H8.18c-6.1,0-8.18-2.13-8.18-8.34ZM48.83,98c0-15.82,0-31.64,0-47.45,0-2.15-.61-3-2.79-2.79-2.36.16-4.75,0-7.13,0-3.41,0-3.42,0-3.42,3.35v93.17c0,.49,0,1,0,1.48-.08,1.45.54,2,2,2,2.62-.09,5.25,0,7.87,0,3.39,0,3.39,0,3.39-3.28ZM28.49,230.86a14.39,14.39,0,1,0,0-.13s0,.09,0,.13ZM42.3,192.52A5.8,5.8,0,1,0,42,204.11h.11a5.8,5.8,0,0,0,.32-11.59Z"/><path id="Path_4148" data-name="Path 4148" class="cls-1" d="M210.31,248.29c7.32,7.05,13.94,13.75,20.94,20,3.39,3,3.26,6.52,2.81,10.29a3.41,3.41,0,0,1-3.14,3,17.43,17.43,0,0,1-2.7.12H116.08c-4.92,0-5.79-1-6-5.83a9.07,9.07,0,0,1,3.23-7.73c6.85-6.33,13.47-12.91,20.17-19.37-.52-.89-1.26-.51-1.84-.51-9,0-18-.13-27.05,0-2.46,0-2.93-.72-2.89-3,.14-8.52,0-17,.06-25.57,0-3.58-.5-3.18,3.08-3.18h171.4c3.31,0,3.31,0,3.31-3.44q0-61.09.06-122.2c0-2.13-.46-2.7-2.66-2.7q-86.07.1-172.14.12c-2.44,0-3.21-.48-3.12-3,.21-6.22.13-12.46,0-18.69,0-1.86.33-2.66,2.4-2.49,2.52.2,5.08,0,7.62,0H293.44c4.75,0,6.55,1.81,6.55,6.51q0,25.32,0,50.65V241.07c0,5.59-1.59,7.2-7.13,7.2H213.43Zm-38.13-20.46a5.55,5.55,0,0,0-5.56,5.4,5.7,5.7,0,0,0,5.41,5.62,5.54,5.54,0,0,0,5.62-5.46v-.12a5.41,5.41,0,0,0-5.38-5.44Z"/></g></svg>