<svg id="Layer_1" data-name="Layer 1" xmlns="http://www.w3.org/2000/svg" viewBox="0 0 300 300"><defs><style>.cls-1{fill:#040504;}.cls-2{fill:#060707;}.cls-3{fill:#090909;}</style></defs><g id="Group_2568" data-name="Group 2568"><g id="Group_2566" data-name="Group 2566"><path id="Path_4430" data-name="Path 4430" class="cls-1" d="M107.13,110.71a15,15,0,0,1-3.59-10.57c.1-28.39,0-56.79.06-85.18,0-8.76,4.32-13.13,13-13.13q62.51,0,125,0c8.5,0,12.82,4.38,12.88,12.92,0,3.61.07,7.21.11,10.82l0,6.3v1.39c-.12.49.07.68.56.56,5,0,10,.07,15,.13,7.61.1,12.23,4.62,12.24,12.16q0,43.64,0,87.27c0,7.49-4.27,12-11.72,12.29-1.62.07-2.52.28-2.77,2.13a38.3,38.3,0,0,1-58.7,26.68,3,3,0,0,0-.66-.22l-4.38-3.42a50.89,50.89,0,0,1-9.55-13.35l-1.74-4.8c-1.16-7-1.16-6.88-8-7-3.32-.06-6.73.73-9.95-.74-2-4.07-.78-6.09,3.76-6.22.81,0,1.62-.08,2.42-.12h9.73c.49.11.78,0,.73-.57a72.69,72.69,0,0,1,3.62-12.53,46.12,46.12,0,0,1,14.51-16.12,4.24,4.24,0,0,0,2.3-1.33,1.2,1.2,0,0,0,1.24-.62,41.89,41.89,0,0,1,27.19-2.34l4.81,1.71a51.77,51.77,0,0,1,13.35,9.57l3.41,4.38a49.05,49.05,0,0,1,6.24,16.63c-.1.62,0,1.15.72,1.31,3.79.86,6.29-1.36,6.26-5.57q0-12.92,0-25.82V55.61c.11-.49-.07-.68-.57-.57l-11.87,0-6.3,0-25.13,0-6.31,0-25.13,0-5.78,0A4.11,4.11,0,0,0,189.43,57c-3,4.18-7,5.22-12.09,5.06-11.84-.35-23.7,0-35.56-.16-2.43,0-3.34.34-3.32,3.12.13,22.55.07,45.09.07,67.63,0,5,1.45,6.24,6.58,6l4.6,0c1.15,0,2.31,0,3.45.16,2.12.19,3.51,1.29,3.49,3.51a3.26,3.26,0,0,1-3.1,3.42,2.34,2.34,0,0,1-.46,0c-3.93.11-7.85.07-11.77.09l-3.39-1a12.57,12.57,0,0,1-6.42-12.42c.13-2.29-.06-4.59-.1-6.89,0-1.87,0-3.73,0-5.6V114.3q.18-.75-.57-.57c-4.82,0-9.65,0-14.47-.16-1.94,0-3.86-.41-5.79-.63ZM247.37,15.1c.31-2.45.23-4.72-2.62-5.72-1.56-1.06-3.28-.44-4.94-.45L214.68,9l-6.31,0L183.24,9l-5.78,0L151.11,9l-5.6,0L119.68,9c-2.12,0-4.29-.68-6.34.41a2.64,2.64,0,0,0-2.2,2.19c-1.08,2-.43,4.22-.4,6.34v4.19c-.12.49.07.68.56.56h24l6,0c3.48,0,7,0,10.43.14a3.48,3.48,0,0,0,3.3-1.47c3.38-5,8.2-6.3,13.89-5.58a23.23,23.23,0,0,0,3.82-.11l7,0,24.45,0,7,0c1.39,0,2.78.12,4.17.11,2.36,0,4.33.66,4.42,3.33.1,2.87-1.88,3.67-4.41,3.68-4.88,0-9.76.08-14.64.13l-6.31,0-25.13,0a8.55,8.55,0,0,0-9.39,3.37,8.78,8.78,0,0,1-4.59,3.56l-24.44.05-6.3,0H111.29c-.49-.12-.68.07-.56.56l0,13.26,0,6.31q0,12.8,0,25.58c0,2,0,3.9,0,5.85,0,6.79-.11,13.58-.13,20.37a4.13,4.13,0,0,0,3.39,4.52,23,23,0,0,0,6.37.13h10.48c.5.11.68-.07.57-.57V94c0-1.86,0-3.73,0-5.6q0-12.92,0-25.82c0-1.87,0-3.74,0-5.61,0-3.81.05-7.62.15-11.42A11.27,11.27,0,0,1,142.49,34h.68c3.8-.1,7.61-.11,11.42-.15H246.8c.49.12.67-.07.56-.56V23.49c.12-.49-.07-.68-.56-.57-1.28,0-2.55-.16-3.82-.11-2.27.09-4.44,0-5.84-2.17-.45-3.13,1.07-4.66,4.07-5h5.58c.5.11.69-.08.58-.57ZM138.64,47.22l0,4.91v2.09c-.13.49.06.66.54.55h26.85l4.6,0c3,0,6,0,9,.14a3.08,3.08,0,0,0,3-1.24c3.67-5.61,9.12-6.41,15.19-5.81a44.87,44.87,0,0,0,5.56-.1l7,0,24.45,0,7,0,24.45,0a61.65,61.65,0,0,1,6.23.2c3.48.46,3.27-1.69,2.67-3.76a4,4,0,0,0-4.68-3.16h0l-25.13,0-6.31,0-25.13,0-5.78,0-25.6,0-5.83,0-26.36,0-5.61,0c-4.93-.18-6.32,1.22-6.14,6.16Zm98.47,64.54-2.16-.31a22.61,22.61,0,0,0-11.32,0c-16.3,3.17-28.14,20.53-24.38,35.63.11.72.21,1.44.32,2.16A28,28,0,0,0,209.78,166a6.54,6.54,0,0,0,3,2.27,28.33,28.33,0,0,0,22.85,4.67,30.27,30.27,0,0,0,25.11-25.11,27.83,27.83,0,0,0-4-21.72,9.79,9.79,0,0,0-3-4.11,28.08,28.08,0,0,0-16.67-10.21Z"/><path id="Path_4431" data-name="Path 4431" class="cls-1" d="M234.24,83.1l-6.31,0c-1.85,0-3.7-.1-5.55-.13-2.32,0-3.89-1.14-3.88-3.49S220.17,76,222.43,76c5.1-.08,10.19-.11,15.29-.16l7,0c3.1,0,6.23,0,9.33.15,4.35.2,8.74-.65,13,.59a5,5,0,0,1,1.31,4.19l-2,2.08-5.28.27Z"/><path id="Path_4432" data-name="Path 4432" class="cls-1" d="M195.56,92.43c.1,3.26-1.58,4.52-4.73,4.51-13.58-.06-27.17,0-40.76,0-2.36,0-4.29-.69-4.46-3.31a3.32,3.32,0,0,1,2.92-3.67,3.14,3.14,0,0,1,.81,0c14.75,0,29.49-.35,44.22.2Z"/><path id="Path_4433" data-name="Path 4433" class="cls-1" d="M173.83,106c.62,3.1-.9,4.54-3.78,5-6.61,0-13.23-.11-19.85-.13-1.85,0-3.53-.27-4.37-2.16-.94-2.14.33-3.5,1.86-4.71l5.51-.28c5.29.05,10.59.15,15.88.12A5,5,0,0,1,173.83,106Z"/><path id="Path_4434" data-name="Path 4434" class="cls-1" d="M174,80.69a4.93,4.93,0,0,1-4.7,2.3c-6.37-.08-12.74-.06-19.11,0-2.49,0-4.58-.7-4.54-3.52s2.12-3.51,4.61-3.5c6.37,0,12.74,0,19.11,0a18.35,18.35,0,0,1,3.37.62A5.09,5.09,0,0,1,174,80.69Z"/><path id="Path_4435" data-name="Path 4435" class="cls-1" d="M170.66,140.83c0,4-.89,4.83-4.87,4.69-1.94-1.58-3-3.51-1-5.59S169,138.75,170.66,140.83Z"/><path id="Path_4436" data-name="Path 4436" class="cls-1" d="M231.42,149.86a5.91,5.91,0,0,1-3.9-.77,7.72,7.72,0,0,1-1-4.28c.06-6.45,0-12.9,0-19.35a6,6,0,0,1,2.72-2.4c3,0,4.28,1.58,4.26,4.52,0,4.47.06,8.93.1,13.39l-.21,6.82Z"/><path id="Path_4437" data-name="Path 4437" class="cls-1" d="M226.54,156.89a6.94,6.94,0,0,1,2.79-2.66,4.13,4.13,0,0,1,3.76,2.05,3.31,3.31,0,0,1-.46,3.88,3.16,3.16,0,0,1-3.45,1C227,160.61,226.52,158.88,226.54,156.89Z"/><path id="Path_4438" data-name="Path 4438" class="cls-1" d="M230.09,18.59a3.89,3.89,0,0,1-3.52,4.24,3,3,0,0,1-.73,0c-1.77-.82-3.13-2-2.73-4.18a3.26,3.26,0,0,1,2.73-2.73C228,15.49,229.21,16.84,230.09,18.59Z"/><path id="Path_4439" data-name="Path 4439" class="cls-1" d="M175.54,44.34l2.58,1.57c.76,4.27-.14,5.37-4.46,5.4a6.3,6.3,0,0,1-2.29-3.38A4.24,4.24,0,0,1,175.54,44.34Z"/><path id="Path_4440" data-name="Path 4440" class="cls-1" d="M164.56,47.93a3.29,3.29,0,0,1-3.15,3.42,2.67,2.67,0,0,1-.4,0,3.41,3.41,0,1,1,0-6.82,3.28,3.28,0,0,1,3.54,3C164.56,47.64,164.56,47.79,164.56,47.93Z"/><path id="Path_4441" data-name="Path 4441" class="cls-1" d="M144.14,50c-1-4.24.41-5.78,4.72-5.23,1.82,1.58,2.55,3.45.8,5.42S145.93,51.48,144.14,50Z"/><path id="Path_4442" data-name="Path 4442" class="cls-1" d="M136.17,17.81,134.9,18.9c-2.51.83-4.46.19-5.13-2.49A3.18,3.18,0,0,1,132,12.53l.3-.06C135.17,11.62,136.88,14,136.17,17.81Z"/><path id="Path_4443" data-name="Path 4443" class="cls-1" d="M115.56,16.49a4,4,0,0,1,3.74-4.24h.37c1.89.72,3.21,1.85,2.91,4.11a3.19,3.19,0,0,1-2.69,2.81C117.65,19.66,116.5,18.19,115.56,16.49Z"/><path id="Path_4444" data-name="Path 4444" class="cls-1" d="M144.13,17.89a3.82,3.82,0,0,1,.74-4.69,3.9,3.9,0,0,1,4.77,0c1.1,1.81,1.57,3.65-.27,5.23S145.77,19.21,144.13,17.89Z"/></g><g id="Group_2567" data-name="Group 2567"><path id="Path_4445" data-name="Path 4445" class="cls-2" d="M79.39,191.1c-14.71,0-29.42,0-44.14,0-4.13,0-7.76-.68-9.89-4.61s-.78-7.4,1.51-10.82q22.18-33.15,44.31-66.36c5.12-7.66,11.75-7.67,16.87,0q22.19,33.17,44.31,66.36c2.28,3.42,3.63,6.89,1.52,10.81s-5.77,4.65-9.89,4.63C109.13,191.05,94.26,191.1,79.39,191.1Zm47.76-8.22a15.11,15.11,0,0,0-.77-1.69c-14.92-22.41-29.9-44.79-44.73-67.27-2.22-3.36-3.05-1.47-4.36.5Q55.57,147.09,33.8,179.73c-.57.86-1.47,1.6-1.28,3.15Z"/><path id="Path_4446" data-name="Path 4446" class="cls-2" d="M83.54,145.66c0,3.72-.16,7.44,0,11.13s-2.25,2.51-4,2.57-4,.72-3.92-2.7c.2-7.41.22-14.84,0-22.26-.12-3.78,2.33-2.69,4.28-2.86,2.2-.18,3.92-.14,3.69,3C83.34,138.22,83.54,142,83.54,145.66Z"/><path id="Path_4447" data-name="Path 4447" class="cls-2" d="M83.44,171.51c1.07,3.89-1.36,3.64-4.1,3.83-3.27.22-3.68-1.13-3.75-4-.07-3.17.74-4.24,4.08-4.22S84.21,168.28,83.44,171.51Z"/></g><path id="Path_4448" data-name="Path 4448" class="cls-3" d="M150.53,201.3H277.41c8.51,0,9-.48,9-9q-.06-63-.18-126a61.5,61.5,0,0,0-.68-9.09,10.88,10.88,0,0,0-5.37-8.61c-4.83-2.38-3.1-6.44-2.93-10,.11-2.27,2.16-1.52,3.59-1C289.49,40.58,294,47,295.66,55.69a67,67,0,0,1,1,12.72q0,72.33,0,144.67c0,2,0,4-.14,5.93-.91,17.18-10.13,26.2-27.36,26.29-25.87.14-51.73,0-77.59.06-10.42,0-11.38-1.72-9,10.61q2.56,13.18,4.75,26.46c.69,4.16,2.19,6.77,7.08,6.16,3.85-.47,5,2.15,5,5.46s-1.55,5-5,4.95q-44-.06-88,0c-3.45,0-5.39-1.16-5.27-5.09s1.42-5.86,5.46-5.32,5.74-1.68,6.38-5.35c1.8-10.33,3.71-20.63,5.55-30.94,1.17-6.55.81-6.94-6.06-6.94q-35.15,0-70.29,0H34c-21,0-30.06-9-30.08-30q-.07-75.08,0-150.15a58.9,58.9,0,0,1,.68-9.09A22.81,22.81,0,0,1,24.44,36.33a53.28,53.28,0,0,1,8.17-.67q35.83-.07,71.66,0c5.09,0,7.56,3.85,5.46,8.43-1,2.18-3,1.69-4.79,1.69q-20.07.06-40.16,0c-10.65,0-21.3-.07-31.95,0-13.78.13-18.47,4.75-18.51,18.38Q14.16,129,14.14,193.8c0,6.79.74,7.5,7.7,7.5Zm-1,9.9v.12H24.14c-2.28,0-4.57.05-6.85.06-1.79,0-2.64.92-3.09,2.66a15.86,15.86,0,0,0,10.26,20,14.87,14.87,0,0,0,2.46.57,41.39,41.39,0,0,0,7.7.62q115.84.06,231.7,0a49.32,49.32,0,0,0,5-.16c9.67-1,13.34-4.56,14.69-14.23,1.18-8.43.16-9.62-8.28-9.62Zm.41,77.48v-.05c7.89,0,15.78,0,23.67,0,2.28,0,4.45-.26,3.85-3.5q-3.3-18.12-6.61-36.23a3.83,3.83,0,0,0-4.07-3.59l-.31,0q-16.17.09-32.33,0a4,4,0,0,0-4.61,3.34,3.42,3.42,0,0,0,0,.45q-3.07,17.22-6.37,34.42c-.73,3.83.69,5.26,4.5,5.19,7.43-.14,14.87,0,22.31,0Z"/></g></svg>