<svg id="Layer_1" data-name="Layer 1" xmlns="http://www.w3.org/2000/svg" viewBox="0 0 300 300"><defs><style>.cls-1{fill:#373535;}</style></defs><g id="Group_2859" data-name="Group 2859"><path id="Path_4903" data-name="Path 4903" class="cls-1" d="M150.21,297.8a148.19,148.19,0,1,0-149-147.54A148.44,148.44,0,0,0,150.21,297.8ZM267.79,149.45A118.1,118.1,0,0,1,150.09,268h-.18A118.11,118.11,0,0,1,31,150.64v-.89A118.13,118.13,0,0,1,148.76,31.25h.13A118.11,118.11,0,0,1,267.78,148.56v.9Z"/><path id="Path_4904" data-name="Path 4904" class="cls-1" d="M134.49,141.24c0,18.32-.17,34.93,0,51.53a14.87,14.87,0,0,0,20.67,14.86,15.09,15.09,0,0,0,9.1-15.06V141.05c6.6,6.62,12,12.11,17.46,17.51a14.93,14.93,0,0,0,20.91,2.95,13.51,13.51,0,0,0,1.71-1.5,15,15,0,0,0-.06-21.17,14.78,14.78,0,0,0-1.7-1.45Q182.35,117,161.9,96.65a15.65,15.65,0,0,0-25.23.17q-20.41,20.3-40.73,40.74a14.85,14.85,0,0,0-3,20.79,14.24,14.24,0,0,0,1.58,1.8,15,15,0,0,0,21.16,0,14.72,14.72,0,0,0,1.46-1.7C122.54,153.14,127.89,147.8,134.49,141.24Z"/></g></svg>