<svg id="Layer_1" data-name="Layer 1" xmlns="http://www.w3.org/2000/svg" viewBox="0 0 300 300"><defs><style>.cls-1{fill:#050506;}</style></defs><g id="Group_2519" data-name="Group 2519"><path id="Path_4155" data-name="Path 4155" class="cls-1" d="M46.53,5A62.63,62.63,0,0,1,89.92,4.7c24.69,8.92,39.87,26.54,44.94,52.42a61.22,61.22,0,0,1-3.68,35.42,3.58,3.58,0,0,0,.9,4.72Q200.5,160,268.81,222.88c5.82,5.35,11.71,10.64,17.48,16.05a31.46,31.46,0,0,1-42.79,46.12c-.64-.6-1.26-1.22-1.85-1.87q-56.6-61.45-113.13-123c-9.3-10.12-18.64-20.22-27.86-30.42a4.21,4.21,0,0,0-5.5-1.42A67.1,67.1,0,0,1,8.49,89.72Q7.43,87,6.62,84.13a66,66,0,0,1,.35-38c.83-2.73,1.46-3,3.53-.88,11,11.18,22.26,22.2,33.31,33.38,8.44,8.53,16.38,8.7,24.94.22,4.8-4.74,9.54-9.56,14.32-14.34a14.7,14.7,0,0,0,1.2-20.76c-.23-.25-.47-.5-.71-.74-6.45-6.65-13.13-13.09-19.84-19.5-6-5.76-12.22-11.36-18.34-17ZM263.27,273.76a13,13,0,0,0,13.48-12.5c0-.17,0-.33,0-.5A14,14,0,0,0,263.35,247a13.26,13.26,0,0,0-13.47,12.77,13.67,13.67,0,0,0,13.3,14Z"/><path id="Path_4156" data-name="Path 4156" class="cls-1" d="M126.76,171.38c4.29,4.65,8.07,8.8,11.91,12.89.93,1,1.17,1.44,0,2.62q-43,42.84-85.91,85.82c-2,2-3.58,3.91-2.33,6.93,1.72,4.17,6.21,4.82,9.72,1.31Q81.07,260,102,239.12q22.13-22.14,44.23-44.3a14,14,0,0,1,1.17-1c3.76,4,7.4,8.16,11.28,12,1.91,1.9,1.83,3.08,0,4.94-11.58,11.44-23.05,23-34.56,34.5L83.45,286c-9.32,9.37-20.27,14.35-33.7,12.95A33.52,33.52,0,0,1,29,288.75c-5.34-5.35-11.1-10.38-13.59-17.87-5.1-15.33-1.55-28.88,9.45-40.23C41,214,57.55,197.83,73.93,181.45c9.33-9.33,18.62-18.68,28-27.92,4.35-4.28,4.47-4.19,8.51.14,3.27,3.51,6.49,7.08,9.73,10.61a35.73,35.73,0,0,0-3.65,2.81Q74,209.63,31.44,252.23c-2.78,2.78-3.1,5.5-1.17,7.89,2.41,3,5.79,3.06,8.89,0q10.89-10.76,21.67-21.61,31.36-31.37,62.7-62.73A11.2,11.2,0,0,0,126.76,171.38Z"/><path id="Path_4157" data-name="Path 4157" class="cls-1" d="M297.51,32.7l-1,1.25q-12.5,16.39-25,32.8A4.7,4.7,0,0,1,267,69.14c-1.92-.2-3.94.33-5.83,0-4.58-.78-7.46,1.74-10.35,4.65Q220.45,104.44,190,135c-1.38,1.39-2.28,1.3-3.61,0-2.88-2.79-5.77-5.6-8.9-8.1-2.28-1.82-1.78-2.92,0-4.71,20.16-20,40.16-40.27,60.44-60.2,3.79-3.73,6.2-7.4,5.22-12.77-.88-4.81,1-7.9,5.05-10.76,10.09-7.15,19.84-14.79,29.66-22.34,1.76-1.35,2.76-1.18,4.25.38,4.59,4.8,9.36,9.43,14,14.14C296.68,31.22,297.5,31.59,297.51,32.7Z"/></g></svg>