<svg id="Layer_1" data-name="Layer 1" xmlns="http://www.w3.org/2000/svg" viewBox="0 0 300 300"><defs><style>.cls-1{fill:#070808;}</style></defs><g id="Group_2569" data-name="Group 2569"><path id="Path_4449" data-name="Path 4449" class="cls-1" d="M59.21,207.74l41.33-6.82c1.91-.31,3.82-.64,5.73-1,8.79-1.5,16.37-2.78,24.71,4.68,11.21,10,29,8.1,41-1.22A35.52,35.52,0,0,0,149.5,139.8a34.8,34.8,0,0,0-33.18,25.29,9.65,9.65,0,0,1-6.94,7.27C91.41,179,73.55,185.82,55,192.82a93.38,93.38,0,0,1,2.55-45.9C72.16,99.5,121.2,70.34,169.15,80.42a97,97,0,0,1,77.34,105.44,101.94,101.94,0,0,1-12,37.32c-6.11,11.51-4.74,22.73,3.14,31.19,12.37,13.29,33,10.43,42.19-5.87a142.73,142.73,0,0,0,16.53-45q11.74-65.17-27.78-118.54a17.19,17.19,0,0,0-2.65-3.06,5.32,5.32,0,0,0-7.4-.06A5.18,5.18,0,0,0,257,88.61a24,24,0,0,0,1.53,2.46c2.35,3.47,7.35,7.08,6.27,10.37-1,3.08-6.61,4.71-10.26,6.86-4.33,2.55-9,7.19-13,6.74-3.42-.38-6.12-6.78-9.23-10.45A87.68,87.68,0,0,0,213,87.14c-3.35-2.14-3.08-3.87-1.26-6.78,3.47-5.57,6.75-11.29,9.83-17.1,1.6-3,3.14-4.24,5.93-1.44a5.75,5.75,0,0,0,1,.66c3.29,2.16,6.64,2.82,9.15-.87s.65-6.47-2.62-8.75a148.44,148.44,0,0,0-28.5-15.52C119.91,1.93,22.06,54.69,4.16,146.42c-7,35.82-1.24,69.7,16.16,101.66,7.32,13.45,22.24,18.38,35.15,11.82s17.59-21.44,11.14-35.29C64.08,219.19,60.81,214.12,59.21,207.74Zm213.42-26.41v-.2c3.67,0,7.36.19,11-.06,3.3-.24,3.78,1.13,3.54,4.05a138.68,138.68,0,0,1-17.87,58.23,14,14,0,0,1-10.44,7.49,13.58,13.58,0,0,1-13.76-5.59,13.76,13.76,0,0,1-.84-15.82A116.84,116.84,0,0,0,257,194.19c.81-4.28-.68-10.32,2.55-12.43s8.6-.44,13-.44Zm-245.27-.2h2.91c11.28,0,11.16,0,12.87,11,.58,3.61.25,5.9-3.85,6.69a6.87,6.87,0,0,0-5.1,3.52,5.51,5.51,0,0,0,.44,6,5.66,5.66,0,0,0,6.71,2.12c4.76-1.61,6.77.4,8.26,4.84A126.73,126.73,0,0,0,55.88,229c4,8.41,1.76,16.65-5.58,20.49s-15.33.91-20-7.33a136.83,136.83,0,0,1-16-46.34c-2.3-14.7-2.22-14.71,12.43-14.71ZM156.27,52.52H156c0-3.68.1-7.36,0-11-.09-2.36.35-3.49,3.15-3.27a141.87,141.87,0,0,1,51.83,13.88c2.25,1.1,2.6,2.12,1.21,4.37-3.66,5.92-7.19,11.93-10.43,18.08-1.65,3.16-3.06,4-6.55,2.21a94.5,94.5,0,0,0-25.91-8.2c-4.31-.79-10.69,0-12.43-2.52-2.19-3.1-.54-8.89-.54-13.51Zm-11.94.14c0,3.29-.21,6.6.06,9.87s-.49,4.61-4.23,4.91A98,98,0,0,0,104.5,77c-2.61,1.29-4,1.12-5.41-1.59-3.37-6.31-6.92-12.53-10.71-18.59-1.72-2.77-1-3.79,1.66-5.07A136,136,0,0,1,131,39.36c13.36-1.87,13.38-1.75,13.38,11.56,0,.58,0,1.16,0,1.74ZM34.8,100.91c.36-.55.77-1.2,1.2-1.84a138.71,138.71,0,0,1,37.91-38c2.43-1.66,3.2-.68,4.31,1.3,3.61,6.4,7.25,12.79,11.09,19.05,1.43,2.31,1.18,3.6-1.06,5.09a98.75,98.75,0,0,0-27,26.92c-1.55,2.3-2.81,2.45-5.09,1.06-6.27-3.83-12.69-7.42-19-11.13-.94-.55-2.16-.87-2.34-2.43ZM27.69,169.3v.18c-3.88,0-7.75-.13-11.61.05-2.71.12-3.13-1-2.92-3.43a145.56,145.56,0,0,1,13.41-50.7c1.53-3.21,2.76-3.28,5.46-1.62C38,117.42,44,120.93,50.12,124.19c3,1.55,3.06,3.06,1.67,5.84a106.94,106.94,0,0,0-8.51,26.39c-.88,4.28.72,10.33-2.55,12.44s-8.6.44-13,.44Zm245.5.19c-3.67,0-7.35-.1-11,0-2.46.1-3.78-.28-4-3.3a97.71,97.71,0,0,0-9.92-36.68c-1.46-2.91-.43-4,2-5.31,6.09-3.35,12.15-6.79,18.07-10.43,2.75-1.69,3.93-1.51,5.43,1.65a150.3,150.3,0,0,1,12.24,39.72c2.42,14.34,2.49,14.32-12.16,14.32Zm-143.36-5a22.77,22.77,0,0,1,30.37-10.71c.37.17.73.35,1.08.55a23.88,23.88,0,0,1,9.93,32.29q-.15.3-.33.6c-6.67,11.75-21.39,15.43-33.63,7.84,5.47-.9,10.41-1.65,15.32-2.54,10.67-1.93,16.86-11.15,14.31-21.19a17,17,0,0,0-20.31-12.91,16.4,16.4,0,0,0-2.66.83c-4.3,1.5-8.56,3.17-14.08,5.23Zm-25.63,24-.27-1.63c14.91-5.65,29.79-11.37,44.74-16.92,3.81-1.41,6,1.05,6.87,4.3a4.94,4.94,0,0,1-3,6.32,4.69,4.69,0,0,1-1,.25c-4.14.91-8.37,1.44-12.57,2.12l-34.74,5.55Z"/><path id="Path_4450" data-name="Path 4450" class="cls-1" d="M150.14,232.44c-10.66,0-21.32,0-32,0-6.87,0-8.65,1.81-8.72,8.51,0,4.85,0,9.69,0,14.54s2.2,7.21,7,7.21H183.9c4.84,0,7-2.51,7-7.25,0-5.23,0-10.47,0-15.7s-2.73-7.32-7.62-7.32Zm0,18.62c-8.5,0-17-.09-25.5.06-2.72,0-3.65-.69-3.64-3.54s1-3.54,3.72-3.53q25.5.15,51,0c2.78,0,3.59.83,3.63,3.62,0,3-1.11,3.49-3.72,3.45-8.5-.14-17-.06-25.5-.06Z"/><path id="Path_4451" data-name="Path 4451" class="cls-1" d="M141.7,280.14c3.87,0,7.74.08,11.62,0,3.63-.1,6-2,6-5.68a5.51,5.51,0,0,0-5.16-5.84,6.77,6.77,0,0,0-.78,0c-7.75-.21-15.49-.19-23.24,0a5.46,5.46,0,0,0-6,4.91,6,6,0,0,0,0,.85c0,4.06,2.61,5.77,6.47,5.8,3.68,0,7.36,0,11,0Z"/><path id="Path_4452" data-name="Path 4452" class="cls-1" d="M251,80c3.86-.51,6.19-2.32,6.11-6A5.35,5.35,0,0,0,252,68.36a5.15,5.15,0,0,0-.88,0,5.27,5.27,0,0,0-5.48,5.06v.42C245.53,77.55,248,79.2,251,80Z"/><path id="Path_4453" data-name="Path 4453" class="cls-1" d="M164.64,274.53c.53,3.48,2.38,5.66,6.08,5.51a5.19,5.19,0,0,0,5.42-5,4.69,4.69,0,0,0,0-.53,5.32,5.32,0,0,0-4.72-5.86,6.16,6.16,0,0,0-1,0C167,268.66,164.93,270.94,164.64,274.53Z"/><path id="Path_4454" data-name="Path 4454" class="cls-1" d="M192.65,106.75c3.79-.16,6-2.13,6.16-5.66a5.69,5.69,0,0,0-11.37-.59C187.17,104.12,189.27,106.13,192.65,106.75Z"/><path id="Path_4455" data-name="Path 4455" class="cls-1" d="M64.47,169.48c-3.8.58-6.14,2.45-6,6.07a5.31,5.31,0,0,0,5.12,5.51,4.35,4.35,0,0,0,1-.05A5.26,5.26,0,0,0,70,175.87c0-.15,0-.3,0-.45C70,171.66,67.52,170.11,64.47,169.48Z"/><path id="Path_4456" data-name="Path 4456" class="cls-1" d="M101.31,100.42c.46,3.73,2.06,6.19,5.78,6.24a5.28,5.28,0,0,0,5.78-4.73,5.68,5.68,0,0,0,0-1,5.33,5.33,0,0,0-4.94-5.69h-.37C103.92,94.93,102.06,97.29,101.31,100.42Z"/><path id="Path_4457" data-name="Path 4457" class="cls-1" d="M235.91,181.11c3.6-.34,5.92-2.2,5.91-5.8a5.33,5.33,0,0,0-4.93-5.69,6.16,6.16,0,0,0-1,0,5.24,5.24,0,0,0-5.54,4.92c0,.16,0,.33,0,.49C230.24,178.75,232.46,180.57,235.91,181.11Z"/></g></svg>