<svg id="Layer_1" data-name="Layer 1" xmlns="http://www.w3.org/2000/svg" viewBox="0 0 250.5 297.41"><defs><style>.cls-1{fill:#030303;}</style></defs><g id="Group_2522" data-name="Group 2522"><g id="Group_2521" data-name="Group 2521"><path id="Path_4160" data-name="Path 4160" class="cls-1" d="M228.28,68.06c-2.71,5.54-4.88,11.32-7.13,17-2,5.18-4.31,10.27-6.29,15.48-1.48,3.89-3.18,7.73-4.77,11.6a93.34,93.34,0,0,0-3.79,9.27,7.85,7.85,0,0,0-1,2.52,4.27,4.27,0,0,0-1,2.42,17.61,17.61,0,0,0-1.5,3.62l-.31.74-.37.7c-1.08,2.79-2,5.69-3.29,8.35a91,91,0,0,1-4.26,9.45c-.93,1.47-1.92,1.51-2.64,0-.42-.9-1.21-1.06-1.83-1.51a15,15,0,0,0-11.92-2.86c-1.15.2-1.07-.47-1.06-1.28a27.58,27.58,0,0,1,2.81-9.21c1.35-3.53,2.8-7,4.28-10.49,1.62-3.84,2.91-7.83,4.85-11.53a6.35,6.35,0,0,0,.94-2.26l2.17-5.33.45-1a2,2,0,0,0,.61-1.8l.41-.72c1.91-4.5,3.86-9,5.71-13.5a57.12,57.12,0,0,0,3.16-8.24.7.7,0,0,0,.37-.71,62.07,62.07,0,0,0,2.87-7.13,1.91,1.91,0,0,0,.5-1.37c.35-.11.39-.4.43-.7l.4-1.14A71.15,71.15,0,0,1,210,61.3a.7.7,0,0,0,.31-.71c.14-.29.46-.54.18-.91l.05-.06c1.82-3.87,3-8,5-11.8a17.92,17.92,0,0,0,1.57-4c1.73-4.11,3.5-8.21,5.19-12.34,3.31-8,6.57-16.07,9.88-24.1.49-1.2,1.18-2.31,1.77-3.46l.3-.38,1.82-1.46a9.84,9.84,0,0,1,11.48,1.78,9.16,9.16,0,0,1,2.52,10.63,4.19,4.19,0,0,0-.13.69q-3.59,8.6-7.16,17.18-3.87,9.34-7.72,18.68c-.91,2.2-1.75,4.45-2.63,6.65a9.15,9.15,0,0,0-1.1,2.83,26.43,26.43,0,0,0-2.24,5.32Z" transform="translate(-6.81 -1)"/><path id="Path_4161" data-name="Path 4161" class="cls-1" d="M251.76,276.89a6.32,6.32,0,0,1-6.76-5.84,6.56,6.56,0,0,1,.07-1.47,6.17,6.17,0,1,1,12.15,2.12,7.38,7.38,0,0,1-.19.78c-.11.4-.28.78-.42,1.17-.24.08-.44.18-.3.49a8.54,8.54,0,0,1-3.55,2.49Z" transform="translate(-6.81 -1)"/><path id="Path_4162" data-name="Path 4162" class="cls-1" d="M164.38,287.21a68.08,68.08,0,0,1-45.78,10.68,113.37,113.37,0,0,1-37.71-11.42,189,189,0,0,1-32.37-20.2,230.78,230.78,0,0,1-26.74-23.93c-3.4-3.55-6.58-7.31-9.85-11a18,18,0,0,0-3-3,6.62,6.62,0,0,1-1.69-7.28,5.86,5.86,0,0,1,6.47-2.91,14,14,0,0,0,5.35-.58c3.29-.59,6.63-1,9.92-1.44,4.45-.52,8.93-1.06,13.38-1.61a67.3,67.3,0,0,0,8.37-1.12l.79-.05c2.05-.31,4.09-.65,6.14-.94a177.43,177.43,0,0,0,22.7-4.55l1.07-.22,1.38-.27A1.07,1.07,0,0,0,83.9,207a93.15,93.15,0,0,0,15.5-5.28c2.76-1.22,5.43-2.63,8.14-3.94,1-.49,1.78-1.41,2.93-1.69a6.39,6.39,0,0,0,2-1.13c3.15-2.05,6.34-4,9.43-6.16s6.14-4.36,9.11-6.65c4.41-3.4,8.73-6.91,13.09-10.37a2.62,2.62,0,0,0,1.73-1.45c4-3.39,7.72-7.17,12-10.23a7,7,0,0,0,2-1.48,29.2,29.2,0,0,1,14.3-6.3,15.88,15.88,0,0,1,13,4.34c4.4,4,6.53,9.28,8.19,14.82,1.46,4.88,2.06,10,3.27,14.89a1.33,1.33,0,0,0,.2,1.11q.85,8.73,1.7,17.45c0,3.12-.23,6.24-.11,9.34.1,2.85-.48,5.63-.41,8.45-.4,3.39-.83,6.8-1.37,10.15a73.66,73.66,0,0,1-2.28,8.88l-1.35,4.52-1.16,3.15q-1.47,3.38-2.92,6.75l-.95,1.82-1,2.05a1.1,1.1,0,0,0-.55.76,5.69,5.69,0,0,0-1.33,2.46L186,265.07c-1,.7-1,2-1.89,2.81l-2.56,3.31c-.44,0-.35.42-.43.69L179.28,274l-.28.32-1.73,1.87-1.08,1.07L174,279.39l-4.22,3.81L166.16,286l-.68.46A1.94,1.94,0,0,0,164.38,287.21Zm23.22-54.86a4.07,4.07,0,0,0,.44-2.14c.53-.72.27-1.62.52-2.4a86.53,86.53,0,0,0,1.5-18.38c0-.89-.36-1.18-1.16-1.45q-24.81-8.23-49.6-16.57a3.16,3.16,0,0,0-3.36.58A135,135,0,0,1,95,214c-7.4,2.49-15,4.24-22.55,6.13a67.15,67.15,0,0,0-8.2,1.62l-12.47,2.08-28.79,4c3.27,3.82,6.44,7.26,9.73,10.6a2.64,2.64,0,0,0,2.48.87c4.6-.49,9.22-.88,13.82-1.32q7.44-.71,14.88-1.44l7.54-.59,0,.28-31.34,9.3.92.86A210.83,210.83,0,0,0,57.79,260a3.06,3.06,0,0,0,2.32.57C69,259.77,78,259,86.89,258.18a20.72,20.72,0,0,1,5.45,0l-23.85,8.54c0,.61.46.67.73.83a164.48,164.48,0,0,0,26.19,13.07,1.56,1.56,0,0,0,1.72-.37l34.7-23.54c1.18-.81,2.39-1.55,3.58-2.33l.18.25L110,285.35a53.72,53.72,0,0,0,12.19,2.2,55.06,55.06,0,0,0,33-7.74,65.86,65.86,0,0,0,22.44-22.66,71.63,71.63,0,0,0,8.53-19.44A14.52,14.52,0,0,0,187.6,232.35Z" transform="translate(-6.81 -1)"/><path id="Path_4163" data-name="Path 4163" class="cls-1" d="M197.9,274.05c.48-2.2.63-4.55,2.78-6L202,267c.59-1.26,1.88-.83,2.85-1.1a9,9,0,1,1-3.78,15.54,7.92,7.92,0,0,1-3.18-7Z" transform="translate(-6.81 -1)"/><path id="Path_4164" data-name="Path 4164" class="cls-1" d="M236.64,229.22a24,24,0,0,1,5.28.25c4.07.86,6.78,6.33,6.22,9.77a9.23,9.23,0,0,1-10.44,7.83,9.4,9.4,0,0,1-1.28-.27,8.79,8.79,0,0,1-6.4-8.39,17.61,17.61,0,0,0,0-1.78,1.42,1.42,0,0,0,.3-1.07c0-1.5,1.38-2.25,1.88-3.47A17.5,17.5,0,0,1,236.64,229.22Z" transform="translate(-6.81 -1)"/></g></g></svg>