<svg id="Layer_1" data-name="Layer 1" xmlns="http://www.w3.org/2000/svg" viewBox="0 0 300 300"><defs><style>.cls-1{fill:#010101;}.cls-2{fill:#020202;}</style></defs><g id="Group_2520" data-name="Group 2520"><path id="Path_4158" data-name="Path 4158" class="cls-1" d="M108.1,97.74v1.18c0,3,1,6.55-.35,8.67s-5,3.1-7.72,4.45c-13.23,6.62-26.47,13.26-39.75,19.77-1.91.93-3,2-2.84,4.18.15,1.74-1.7,3.57-.6,4.94s3,1.7,4.61,2.49c20.36,10.18,40.62,20.57,61.12,30.46a63.61,63.61,0,0,0,31.65,5.32A73,73,0,0,0,184,170.86c19.07-9.89,38.37-19.33,57.62-28.85,1.76-.87,1.7-1.7,1.65-3.49-.1-5-3.4-6.74-7.2-8.6-13.83-6.75-27.53-13.78-41.37-20.52a4.24,4.24,0,0,1-2.78-4.67c.16-5.21.11-10.42,0-15.64,0-1.63.41-2.27,2.12-2.17a28.24,28.24,0,0,0,14.84-3,2.65,2.65,0,0,1,2.71.28c18,9,36,17.93,53.92,27a46.09,46.09,0,0,0,5.13,2.29,21,21,0,0,1,13.59,21.28c-.15,2,.11,4.1.11,6.15,0,25.67.09,51.34-.07,77,0,4.46.57,9-.8,13.43a20.08,20.08,0,0,1-10.86,12.91c-19.81,9.18-39.08,19.43-58.66,29-11.09,5.44-22.08,11.08-33.17,16.54-17,8.36-34.52,8.78-52.48,3.78a89.09,89.09,0,0,1-15.51-7Q74.38,267.52,36,248.23c-2.42-1.22-4.83-2.39-7.37-3.39a20.82,20.82,0,0,1-12.83-21.17c.15-1.83-.13-3.7-.13-5.55,0-25.87-.06-51.74.06-77.61a51.54,51.54,0,0,1,.41-11.71,19.93,19.93,0,0,1,11.21-14.34c19.4-9,38.3-19,57.44-28.51,3.32-1.65,6.07-2.63,9.72-.67a21.09,21.09,0,0,0,11.25,1.65c1.81-.1,2.44.41,2.33,2.27C108,92,108.1,94.89,108.1,97.74Z"/><path id="Path_4159" data-name="Path 4159" class="cls-2" d="M175.28,105.1v30.68c0,11.43-6.93,18.32-18.36,18.35-4.72,0-9.44,0-14.16,0-10.86-.06-17.91-7-17.94-17.88q-.06-31.12,0-62.25c0-3.77,0-3.77-3.93-3.78-5.84,0-11.68.06-17.51,0a12.67,12.67,0,0,1-12-13.29c0-.22,0-.44.05-.66a10.77,10.77,0,0,1,4.28-7.85,167.08,167.08,0,0,0,13.19-12.61c7.3-7.17,14.46-14.47,21.73-21.66,2.34-2.31,4.8-4.52,7.33-6.62C146.13.73,157.36,2,164.67,9.74c3.52,3.72,7.52,7.06,11.17,10.71l24.42,24.39a25.22,25.22,0,0,0,2.89,2.48c5.66,4.18,6.8,9.2,4.62,15.11C205.7,68,200.26,70.13,194,70c-5.82-.11-11.7.08-17.56.23-1.92,0-1.1,1.56-1.11,2.42C175.25,83.47,175.28,94.28,175.28,105.1Z"/></g></svg>