<svg id="Layer_1" data-name="Layer 1" xmlns="http://www.w3.org/2000/svg" viewBox="0 0 300 300"><defs><style>.cls-1{fill:#0a0a0a;}.cls-2{fill:#1b755b;}.cls-3{fill:#025ba7;}</style></defs><g id="Group_2852" data-name="Group 2852"><path id="Path_4887" data-name="Path 4887" class="cls-1" d="M284.79,50.17a27.68,27.68,0,0,1,12.28,25c-.22,64.7-.11,129.4-.12,194.1A24.83,24.83,0,0,1,275.33,297a25.35,25.35,0,0,1-5.84,0H49a24.22,24.22,0,0,1-25.31-17.13A6.08,6.08,0,0,0,19.62,276,24.16,24.16,0,0,1,2.9,251.63V53.25A24.47,24.47,0,0,1,28.52,27.41c8-.08,15.93-.14,23.88.1,3.37.1,4.93-.75,4.43-4.33a27.79,27.79,0,0,1-.06-4.28A15.28,15.28,0,0,1,68.48,3.13a14.88,14.88,0,0,1,17,9.81c.33.74.64,1.5,1,2.25l0,3.68c-.25,10.08-1.78,8.62,8.35,8.35l3.7,0H101l3.7,0h24.49l3.7-.06h2.46l3.7.05h22.81l5.37-.05h2.47l3.69.05c4.28.06,8.56.18,12.84.19,8.28,0,8.28,0,7.73-8.54,0-1.23.07-2.46.1-3.69A15.29,15.29,0,0,1,208,3a15.49,15.49,0,0,1,15.61,11c.07,1.23.15,2.46.22,3.68-.53,10.12-.53,10.12,9.58,9.58l3.69-.05h2.47l3.69.05a39.81,39.81,0,0,1,25.57,5.55l1.25,1.1a23.28,23.28,0,0,1,4.35,6.41A12.87,12.87,0,0,0,285,50.13ZM249.16,277.62l-4.93.05H230.75l-3.68-.05H214.82l-4.93.05H196.42l-3.68-.05H179.26l-3.68.05H162.11l-4.93-.05H144.92l-3.68.05H127.77l-4.93-.05H110.59l-3.68.06H93.43l-4.93-.05H76.25l-4.93.05H57.85l-3.68-.06H32.4c4.92,3.84,7.19,9,13.2,9.22l2.46,0,3.68.05h198.5l3.68-.05h2.47l3.67.05a72.39,72.39,0,0,0,14.79-.2l1.64-.63a9,9,0,0,0,7.16-4.93l1-1.32a3.31,3.31,0,0,0,1.39-3.22l.61-1.64a72.4,72.4,0,0,0,.22-14.79c0-1.23,0-2.45-.05-3.67v-6.12c0-1.23,0-2.46.05-3.68V216.06l0-4.42V190.32c0-1.22,0-2.45,0-3.68v-4.93c0-1.64,0-3.28,0-4.93V156c0-1.23,0-2.45,0-3.68v-6.12l0-3.68V121.64l0-3.68v-7.77c.06-13,.3-26,.13-39a14.06,14.06,0,0,0-9.46-13.3v64.9l.05,4.93v8.56c0,1.65,0,3.29-.05,4.93v15.93l.06,4.93v8.57l0,4.93v17.15l.05,3.68v9.79l-.06,3.69v17.15c0,1.23,0,2.45.06,3.68v9.79l-.05,3.68a60.43,60.43,0,0,1-2,18.36,29.85,29.85,0,0,1-13,13,43.74,43.74,0,0,1-13.38,2Zm18.16-50.49V210l0-3.72v-9.75l0-4.93V175.72l-.05-3.72v-9.75l.05-4.93V141.43c0-1.24,0-2.48-.05-3.72v-11c0-1.24,0-2.48.05-3.72V107.13l-.05-4.93V97.33c.2-.86-.13-1.2-1-1H28.64A97,97,0,0,1,18.27,96c-4.69-.62-5.63,1.17-5.61,5.66.17,48.71.09,97.41.1,146.11,0,15.61,5.18,20.45,20.78,19.54l3.72,0H58.05l3.72-.05h6.08l4.93.05H92.34l4.93,0h4.85l4.93.05h19.57l4.93-.05h6.08l3.72.05h20.79l3.72,0h6.08l3.73.05h20.79l3.72-.05h6.08l3.72,0h20.79l3.72-.05h6.08l4.93,0c6.93.33,14.05,1.27,18.67-5.81l.94-1.32c3.54-4.48,2.25-9.68,2.21-14.69,0-1.64,0-3.28,0-4.93v-9.75c0-1.25,0-2.5,0-3.74ZM71.41,66.71V56.8c3.82-.46,5-2.93,4.93-6.42a85.19,85.19,0,0,1,0-9.18c.29-3.41-1.26-4-4.28-4-14.89.13-29.78-.06-44.68.11A14.49,14.49,0,0,0,12.64,51.53a4.69,4.69,0,0,0,0,.53c-.18,9.58.26,19.19-.18,28.75-.23,4.93,1.64,5.58,5.91,5.53,23.05-.19,46.11-.09,69.16-.09q86.91,0,173.83.09c4.51,0,6.46-.72,6.2-5.85-.47-9.36,0-18.77-.18-28.15a14.67,14.67,0,0,0-14.26-15.05h-.82c-5.3-.11-10.6,0-15.91,0-13,0-13,0-13.06,12.85a14.87,14.87,0,0,1-13,16.51,14.72,14.72,0,0,1-1.76.1V56.84a4.67,4.67,0,0,0,4.57-3.42,17.13,17.13,0,0,0,.37-4.84c.1-11.28.09-11.29-10.93-11.29H99.74c-13.52,0-13.52,0-13.66,13.46A14.78,14.78,0,0,1,72.51,66.66C72.14,66.69,71.78,66.71,71.41,66.71ZM76.34,21.9c0-4.51.34-9.25-5.21-8.93s-4.36,5.19-4.64,9,.3,5.61,5,5.75c5.67.17,5.19-2.81,4.89-5.77Zm137.19.15c0-4.23.66-9.12-4.85-9-6,.05-4.57,5.3-5,9.19-.48,4.27,1,5.3,5.26,5.47,5.34.18,4.93-2.68,4.67-5.64Z"/><path id="Path_4888" data-name="Path 4888" class="cls-2" d="M208.67,66.71a14.87,14.87,0,0,0,14.89-14.85,14.72,14.72,0,0,0-.1-1.76c.07-12.85.07-12.85,13.06-12.85,5.31,0,10.62-.09,15.91,0a14.67,14.67,0,0,1,15.09,14.23v.82c.14,9.38-.3,18.79.17,28.15.25,5.13-1.69,5.87-6.19,5.85q-86.92-.19-173.84-.09c-23.06,0-46.11-.1-69.16.09-4.28,0-6.14-.61-5.91-5.53.44-9.57,0-19.18.18-28.76A14.51,14.51,0,0,1,27.05,37.27a4.34,4.34,0,0,1,.51,0c14.89-.17,29.78,0,44.68-.11,3,0,4.57.58,4.27,4a85.19,85.19,0,0,0,0,9.18c.06,3.5-1.13,5.95-4.93,6.41l.1.11a36.12,36.12,0,0,1,0-4.88c.72-5.67-1.92-5.58-6-3.74a14.64,14.64,0,0,0-3.1,25c2.26,1.73,5.06,3.88,7.69,2.79,2.83-1.18.87-4.65,1.31-7.07a15.56,15.56,0,0,0,.07-2.46l-.1.1A14.79,14.79,0,0,0,86.39,51.9c0-.42,0-.83,0-1.25.14-13.46.14-13.46,13.66-13.46H202.81c11,0,11,0,10.92,11.29a16.42,16.42,0,0,1-.37,4.84,4.65,4.65,0,0,1-4.56,3.42l.09.1a39.73,39.73,0,0,1,0-4.88c.73-5.66-1.91-5.58-5.95-3.74a14.66,14.66,0,0,0-3.11,25c2.27,1.72,5.06,3.87,7.7,2.78,2.83-1.17.87-4.65,1.31-7.06a14.57,14.57,0,0,0,.06-2.47Z"/><path id="Path_4889" data-name="Path 4889" class="cls-2" d="M277.58,110.26V58.11A14.09,14.09,0,0,1,287,71.41c.16,13-.07,26-.14,39a2.94,2.94,0,0,0-.92.31A21.24,21.24,0,0,0,277.58,110.26Z"/><path id="Path_4890" data-name="Path 4890" class="cls-3" d="M71.44,56.79V66.7l.1-.1a4.86,4.86,0,1,1,0-9.71h0Z"/><path id="Path_4891" data-name="Path 4891" class="cls-3" d="M208.67,56.79V66.7l.1-.1A4.71,4.71,0,0,1,203.94,62a3.37,3.37,0,0,1,0-.55,4.66,4.66,0,0,1,4.76-4.55h.05Z"/><path id="Path_4892" data-name="Path 4892" class="cls-1" d="M71.55,56.89a4.86,4.86,0,1,0,0,9.71,15.65,15.65,0,0,1-.07,2.47C71,71.48,73,75,70.17,76.13c-2.63,1.1-5.43-1.06-7.69-2.78a14.66,14.66,0,0,1,3.1-25c4-1.84,6.68-1.92,6,3.75A34,34,0,0,0,71.55,56.89Z"/><path id="Path_4893" data-name="Path 4893" class="cls-1" d="M208.77,56.9A4.65,4.65,0,0,0,204,61.4v.05a4.71,4.71,0,0,0,4.25,5.14,3.54,3.54,0,0,0,.56,0,15.69,15.69,0,0,1-.07,2.47c-.43,2.41,1.53,5.89-1.3,7.06-2.64,1.09-5.43-1.06-7.7-2.78a14.65,14.65,0,0,1,3.11-25c4-1.84,6.67-1.92,5.95,3.74A37.37,37.37,0,0,0,208.77,56.9Z"/><path id="Path_4894" data-name="Path 4894" class="cls-1" d="M86.17,110.51l2.37.47c4.37,3.68,1.78,8.84,2.81,13.23l0,3.72v8.53l0,3.73v18.32l0,3.72-.09,8.54-3.82,3.81-9.77.09-4.92.05H56.83l-3.73-.05h-11l-3.72,0c-3.63-.82-7.94,1-10.78-2.81l-.47-2.37v-6.08l0-3.72V140.17l-.05-4.93v-6.08l.05-4.93a7.88,7.88,0,0,0,.16-1.2c-.33-13.87.89-12,12.32-12.47l3.72,0h8.53l4.93,0H74l3.72,0ZM58.62,164.63c6.12,0,12.25-.11,18.37.05,2.89.09,4.41-.31,4.35-3.86-.21-12.24-.14-24.49,0-36.74,0-2.56-.59-3.57-3.39-3.54q-18.68.24-37.36,0c-2.81,0-3.37,1-3.35,3.54.11,12.25.19,24.49-.06,36.73-.07,3.59,1.47,3.93,4.34,3.85,5.68-.14,11.39,0,17.11,0Z"/><path id="Path_4895" data-name="Path 4895" class="cls-1" d="M87.43,253l-8.61.09H44.51c-2.22-.05-4.44-.17-6.65-.17-10.22,0-10.22,0-10.68-9.86l-.05-3.72V232l.05-3.72V208.75L27.13,205v-7.31l.13-4.92c1.77-4,5.22-3.83,8.76-3.73,2.42.08,4.85-.12,7.27-.19H77.6l11,.47,2.69,3.45,0,3.71v9.76l0,3.71v17.11l0,4.93v8.54l0,3.72C91.11,247.7,91.41,251.32,87.43,253ZM59.56,199c-6.12,0-12.25.19-18.36-.08-3.29-.14-4.11,1-4.05,4.16q.26,17.74,0,35.5c0,3.36.73,4.61,4.35,4.55q17.74-.34,35.5,0c3.58.06,4.39-1.14,4.34-4.5-.19-11.63-.22-23.27,0-34.89.06-3.63-.68-5.09-4.64-4.83-5.7.37-11.43.09-17.11.09Z"/><path id="Path_4896" data-name="Path 4896" class="cls-1" d="M154.82,253.09h-34.3l-7.27-.47a7.79,7.79,0,0,1-2.81-5.84l0-3.72V229.62c0-1.65,0-3.29,0-4.93V212.48c0-1.64,0-3.29,0-4.93V194.11c1.38-6.89,7.16-4.21,11.26-5.18h34.31c2.47.07,4.93.1,7.34.24,3.74.2,7.87-1.17,10.77,2.57l.51,3.59v12.2c0,1.24,0,2.48,0,3.73v14.66c0,1.24,0,2.48,0,3.72v12.21c0,1.24,0,2.47,0,3.71.19,5.33-2.2,7.77-7.69,7.4C163,252.72,158.84,253,154.82,253.09ZM142.9,199c-6.12,0-12.25.18-18.36-.08-3.28-.14-4.11.94-4.11,4.11q.27,18.06,0,36.15c-.05,3.45,1.29,4,4.28,3.92,11.83-.14,23.67-.19,35.5,0,3.49.06,4.45-1,4.41-4.45-.19-11.83-.23-23.67,0-35.5.08-3.77-1.42-4.33-4.62-4.2-5.66.2-11.38,0-17.09,0Z"/><path id="Path_4897" data-name="Path 4897" class="cls-1" d="M253.08,146.27v5.84c-.07,5.2-.33,10.42-.16,15.6a6.67,6.67,0,0,1-3.76,6.86l-3.71.14H229.57l-3.72-.05h-11l-3.72,0H195.26l-3.59-.52A7.87,7.87,0,0,1,189,167.7c.14-5.1-.09-10.2-.17-15.29V118.1c.17-3.59.77-6.89,5.17-7.59h18.35l3.71,0h8.54l4.92,0h17.12c5,.08,6.36,3.29,6.4,7.58Q253.08,132.2,253.08,146.27ZM222.6,120.59c-7.54,0-13.86.11-20.19,0-2.61-.06-3.55.69-3.51,3.43q.19,18.66,0,37.32c0,2.8,1.1,3.38,3.6,3.37,12.24-.09,24.47-.12,36.72,0,2.92,0,3.87-.82,3.78-3.8-.19-6.31,0-12.64-.05-19-.07-6.89,2.39-16.23-1.1-20C237.88,117.55,228.43,121.19,222.6,120.59Z"/><path id="Path_4898" data-name="Path 4898" class="cls-1" d="M253.09,216.1V221q-.24,14.66-.47,29.31l-1.06,1.28a58.11,58.11,0,0,1-19.05,1.24c-2.6.22-5.23.15-7.84.21h-7.4c-6.84-.06-13.69-.16-20.53-.17a10.56,10.56,0,0,1-6.35-1.28L189,249.15q0-14.07-.11-28.14v-4.92c.07-2.62,0-5.24.25-7.84a51.53,51.53,0,0,1,1.24-17.84l1.29-1L216,188.9h9.86l23.24.12,2.46,1.41a51.21,51.21,0,0,1,1.25,17.83C253.06,210.87,253,213.49,253.09,216.1ZM199,221c0,6.12.15,12.25-.07,18.36-.11,3,1,3.75,3.84,3.72q18-.21,36.14,0c3.13,0,4.23-.71,4.17-4q-.28-18.08,0-36.15c.05-3.37-1.1-4-4.18-4q-17.74.24-35.5,0c-3.29-.05-4.69.64-4.5,4.3.33,5.94.09,11.87.1,17.78Z"/><path id="Path_4899" data-name="Path 4899" class="cls-1" d="M111.93,112l1.27-1,8.5-.46,3.71,0h18.35l3.71,0H156l3.71,0c14.87.58,14.45-1.9,14.9,12.45l0,3.71v11l0,3.72v15.85c0,1.24,0,2.48,0,3.72-.16,3.65-.31,7.29-.47,10.94l-1.05,1.28c-3.83,2.47-8.21.59-12.19,1.5l-3.72,0h-11l-3.72.05H126.64l-3.73,0c-11.9-.43-12.56,1.11-12.28-13.09a15.61,15.61,0,0,0-.17-1.81c0-1.24,0-2.48,0-3.71V142.63l0-3.71V125.48l0-3.72C111.14,118.55,109.8,115,111.93,112Zm8.6,30.39c0,6.12.12,12.25,0,18.36-.07,2.77.54,4,3.66,3.93q18.36-.25,36.73,0c3,0,3.77-.95,3.73-3.83-.13-12.24-.09-24.48,0-36.73,0-2.46-.49-3.64-3.32-3.6q-18.67.22-37.35,0c-2.69,0-3.53.83-3.46,3.48.18,6.14.06,12.28.06,18.4Z"/></g></svg>