<svg xmlns="http://www.w3.org/2000/svg" width="276.378" height="142.461" viewBox="0 0 276.378 142.461">
  <g id="Grupo_2663" data-name="Grupo 2663" transform="translate(0)">
    <path id="Trazado_4167" data-name="Trazado 4167" d="M4265.086,805.207c2.621-.574,4.86.4,7.051,1.673,11.194,6.5,22.407,12.971,33.59,19.492,5.05,2.945,5.052,7.375.051,10.3q-18.723,10.945-37.456,21.871a72.892,72.892,0,0,0-10.62,6.121,83.756,83.756,0,0,0-7.453,4.121c-4.407,3.024-8.775,3.326-13.35.562a100.355,100.355,0,0,0-12.724-7.319c-7.077-4.173-14.181-8.3-21.222-12.538-3.394-2.041-3.61-5.628-.69-8.828,2.293-.387,3.653-2.326,5.563-3.392,9.7-5.409,19.284-11.023,28.853-16.662C4245.966,815.134,4255.2,809.567,4265.086,805.207ZM4230.6,855.761a6.678,6.678,0,0,0,2.77-1.108c3.691-2.072,7.451-4.015,11.151-6.08,13.774-7.691,26.935-16.465,41.185-23.324,3.187-1.534,3.085-3.35-.084-5.207-5.2-3.047-10.458-5.983-15.694-8.957-2-1.138-4.387-2.03-6.24-.552-2.617,2.091-5.592,3.456-8.417,5.1-8.517,4.96-17.17,9.689-25.684,14.651-5.826,3.394-11.451,7.118-17.517,10.112-2.973,1.467-3.549,3.389-.214,5.32,4.142,2.4,8.422,4.539,12.3,7.422C4225.958,854.476,4228.43,854.914,4230.6,855.761Zm50.818-12.9c-.3-.232-.7-.552-1.116-.868-7.458-5.74-9.906-5.906-17.924-1.2-.474.278-.874.676-1.346.953-2.041,1.2-5.773,1.12-5.746,3.607.017,1.456,3.465,3.121,5.607,4.236,2.184,1.138,4.28,3.385,7.178,1.814,3.965-2.151,7.9-4.355,11.846-6.544C4280.629,844.463,4281.431,844.126,4281.416,842.858Z" transform="translate(-4198.546 -750.619)" fill="#7f7f7f"/>
    <path id="Trazado_4168" data-name="Trazado 4168" d="M4264.894,794.411c-9.888,4.361-19.123,9.928-28.408,15.4-9.569,5.639-19.153,11.253-28.853,16.662-1.912,1.065-3.271,3-5.562,3.392q-1.491-1.571-2.979-3.141c1.815-1.123,1.176-2.948,1.181-4.506q.071-18.8,0-37.61c-.018-3.926,1.413-6.9,4.842-8.88q15.23-8.8,30.349-17.78c8.208-4.9,16.877-9.065,24.938-14.285,1.9-1.231,3.926-2.483,6.424-1.855l-.083-.074a.927.927,0,0,0,.809,1c.952.88.675,2.046.677,3.118q.018,19.888.006,39.777a8.472,8.472,0,0,1-.721,4.032l-.025-.123q-.388.859-.774,1.717l-.023-.113C4266.531,792.474,4264.662,792.863,4264.894,794.411Zm-62.28,30.5c1.871.865,3.178-.49,4.542-1.273,18.3-10.518,36.55-21.11,54.862-31.6a6.5,6.5,0,0,0,3.651-6.34c-.109-12.146-.04-24.293-.064-36.44-.01-4.678-.393-4.858-4.579-2.443q-27.063,15.617-54.137,31.216a10.386,10.386,0,0,0-4.314,3.737c-1.21.21-1.444,1.058-1.443,2.119q.011,19.988-.02,39.976C4201.111,825.081,4201.617,825.274,4202.614,824.914Z" transform="translate(-4198.353 -739.824)" fill="#7f7f7f"/>
    <path id="Trazado_4169" data-name="Trazado 4169" d="M4266.679,741.435c-2.5-.628-4.525.624-6.424,1.855-8.061,5.221-16.729,9.384-24.94,14.285q-15.1,9.014-30.346,17.78c-3.43,1.98-4.863,4.953-4.843,8.88q.1,18.806,0,37.61c-.007,1.558.63,3.383-1.185,4.506-1.017-1.183-.675-2.619-.677-3.963-.02-12.814.1-25.63-.06-38.442-.064-5.136,2.09-8.382,6.508-10.889,18.644-10.584,37.168-21.377,55.744-32.081C4262.605,739.736,4264.843,738.071,4266.679,741.435Z" transform="translate(-4198.2 -739.451)" fill="#0c0c0c"/>
    <path id="Trazado_4170" data-name="Trazado 4170" d="M4281.44,742.757a.924.924,0,0,1-.806-1A.873.873,0,0,1,4281.44,742.757Z" transform="translate(-4212.238 -739.843)" fill="#354a5e"/>
    <path id="Trazado_4171" data-name="Trazado 4171" d="M4281.532,799.373l.026.123Z" transform="translate(-4212.391 -749.655)" fill="#354a5e"/>
    <path id="Trazado_4172" data-name="Trazado 4172" d="M4280.573,801.306l.021.113Z" transform="translate(-4212.228 -749.984)" fill="#354a5e"/>
    <path id="Trazado_4173" data-name="Trazado 4173" d="M4232.519,856.729c-2.167-.847-4.638-1.285-6.441-2.623-3.881-2.882-8.162-5.022-12.3-7.422-3.335-1.931-2.758-3.852.215-5.319,6.064-2.994,11.69-6.717,17.514-10.112,8.515-4.962,17.168-9.691,25.685-14.651,2.826-1.645,5.8-3.01,8.419-5.1,1.851-1.479,4.235-.586,6.238.552,5.238,2.974,10.5,5.91,15.694,8.957,3.168,1.858,3.272,3.674.084,5.207-14.251,6.859-27.409,15.634-41.185,23.324-3.7,2.065-7.459,4.008-11.151,6.08A6.683,6.683,0,0,1,4232.519,856.729Zm24.028-16.268c-2.133-1.462-3.583-3.086-5.718-1.89-5.273,2.954-10.5,6-15.952,9.137,3.761,2.759,3.945,2.961,5.916,1.866C4245.941,846.717,4250.993,843.69,4256.547,840.461Zm-6.869-11.647c-1.213-.97-2.318-2-3.824-2.1-1.586-.1-3.477.827-3.671,2.03-.267,1.663,1.838,2.257,3.206,2.428C4247.033,831.378,4248.418,830.339,4249.678,828.814Zm13.147,7.69c-2.382-2.228-4.591-3.041-7.139-.848-.887.763-.764,1.189.087,1.868C4258.354,839.584,4260.524,838.858,4262.825,836.5Zm-39.489,7.611a6.425,6.425,0,0,0-3.745-2.26c-1.534-.147-3.435.757-3.7,1.985-.39,1.773,1.8,2.209,3.083,2.505C4220.648,846.73,4221.945,845.482,4223.336,844.115Zm13.057,0c-2.347-2.471-4.609-2.826-7.014-.743-.616.534-.6,1.059.116,1.648C4232.013,847.1,4234.175,846.482,4236.393,844.116Zm-3.894-9.961c-1.349.564-3.408.816-3.469,2.33-.063,1.6,2,2.28,3.359,2.294,1.526.016,3.692-.724,3.694-2.387C4236.084,835.108,4233.949,834.628,4232.5,834.155Zm24.586-13.972c4.124,2.962,4.124,2.962,7.517-.232C4262.178,817.409,4259.773,817.234,4257.085,820.182Zm-28.32,31.6c2.569,2.964,5.009,2.643,7.635-.043C4233.761,849.15,4231.32,848.779,4228.765,851.786Zm48.092-27.928c2.591,3.166,5.059,2.841,7.642-.026C4281.9,821.28,4279.43,821.019,4276.857,823.858Zm-13.236,7.661c2.388,2.6,4.675,2.745,7.078.742.673-.562.519-1.069-.157-1.63C4268.01,828.527,4265.846,829.215,4263.621,831.519Zm10.363-13.759c-1.27.666-3.421.863-3.362,2.434.055,1.429,2.111,2.177,3.507,2.137,1.368-.04,3.455-.711,3.418-2.212C4277.511,818.646,4275.424,818.332,4273.984,817.76Zm-24.3,18.794a6.613,6.613,0,0,0-3.729-2.268c-1.559-.206-3.439.739-3.731,1.945-.43,1.789,1.769,2.246,3.042,2.531C4246.921,839.132,4248.244,837.886,4249.681,836.554Zm-6.72,3.655c-2.132-1.645-4.187-3.272-6.825-.926-.715.635-.935,1.273-.022,1.99C4238.727,843.326,4240.9,842.591,4242.961,840.209ZM4271.6,816.39a23.243,23.243,0,0,0-2.895-1.977c-1.8-.854-3.142.35-4.478,1.3-.5.352-.708,1.177-.262,1.391,1.431.685,2.823,1.932,4.581,1.165A26.528,26.528,0,0,0,4271.6,816.39Zm-15.423,16.416c-2.612-2.712-5.136-2.926-7.772-.051C4250.771,835.48,4253.217,835.573,4256.178,832.805Zm-21-.089c2.652,2.874,5.166,2.866,7.757.043C4240.511,830.075,4238.062,829.978,4235.182,832.717Zm15.386-8.8c2.042,2.325,4.223,2.921,6.761.881.71-.571.574-1.137-.059-1.657C4254.813,821.125,4252.624,821.5,4250.568,823.918Zm20.645-.214c-1.268-1.077-2.528-2.352-4.274-1.879-1.178.32-3.225.843-2.879,2.2.381,1.507,2.306,2.258,4.017,1.921A3.68,3.68,0,0,0,4271.213,823.7Zm-14.072,3.993c2.534,2.869,4.973,2.9,7.581.035C4262.2,824.965,4259.764,824.9,4257.141,827.7Zm13.11,0c2.181,2.4,4.365,2.927,6.863.889.648-.529.845-1.017.145-1.6C4274.866,825,4272.616,825.216,4270.251,827.7Zm-40.484,20.243c-2.549-2.731-5-2.959-7.575.007C4224.724,850.823,4227.174,850.663,4229.767,847.942Zm-7.6-7.511c4.035,2.893,4.461,2.859,7.4-.371C4227.071,837.67,4224.66,837.514,4222.162,840.43Z" transform="translate(-4200.465 -751.588)" fill="#0c0c0c"/>
    <path id="Trazado_4174" data-name="Trazado 4174" d="M4292.716,849.511c.016,1.268-.787,1.6-1.5,2-3.945,2.189-7.881,4.392-11.848,6.544-2.9,1.571-4.992-.676-7.177-1.814-2.142-1.115-5.591-2.781-5.606-4.237-.026-2.487,3.7-2.411,5.744-3.607.473-.277.874-.676,1.346-.953,8.019-4.707,10.468-4.541,17.926,1.2C4292.013,848.96,4292.419,849.28,4292.716,849.511Z" transform="translate(-4209.845 -757.273)" fill="#0c0c0c"/>
    <path id="Trazado_4175" data-name="Trazado 4175" d="M4203.291,782.516a10.384,10.384,0,0,1,4.313-3.737q27.081-15.588,54.137-31.216c4.187-2.415,4.57-2.235,4.579,2.443.025,12.146-.044,24.293.063,36.439a6.5,6.5,0,0,1-3.65,6.34c-18.312,10.492-36.565,21.085-54.861,31.6-1.363.783-2.671,2.139-4.543,1.273Zm51.387-20.273c.514-1.291.768-2.542-.555-3.744-12.328,7.15-24.537,14.326-36.864,21.295-2.274,1.286-3.207,2.759-2.862,5.212-.04,8.122.04,16.247-.177,24.365-.094,3.578.834,4.1,3.868,2.312,11.825-6.966,23.716-13.825,35.6-20.7,1.153-.666,2.065-1.417,2-2.847C4255.292,779.511,4256.735,770.809,4254.678,762.244Z" transform="translate(-4199.066 -740.572)" fill="#27a2da"/>
    <path id="Trazado_4176" data-name="Trazado 4176" d="M4202.991,790l.039,43.146c-1,.36-1.5.167-1.5-1.05q.044-19.988.019-39.976C4201.548,791.062,4201.78,790.214,4202.991,790Z" transform="translate(-4198.767 -748.059)" fill="#0c0c0c"/>
    <path id="Trazado_4177" data-name="Trazado 4177" d="M4261.344,846.091c-5.555,3.229-10.607,6.256-15.755,9.113-1.971,1.094-2.154.892-5.916-1.866,5.457-3.134,10.678-6.183,15.953-9.137C4257.761,843.005,4259.21,844.629,4261.344,846.091Z" transform="translate(-4205.262 -757.218)" fill="#e2e9eb"/>
    <path id="Trazado_4178" data-name="Trazado 4178" d="M4255.97,832.094c-1.261,1.524-2.646,2.564-4.292,2.358-1.368-.171-3.471-.765-3.2-2.428.193-1.2,2.085-2.133,3.672-2.03C4253.649,830.092,4254.756,831.124,4255.97,832.094Z" transform="translate(-4206.756 -754.868)" fill="#d2d6d9"/>
    <path id="Trazado_4179" data-name="Trazado 4179" d="M4271.766,841.356c-2.3,2.354-4.471,3.08-7.051,1.021-.851-.68-.974-1.105-.088-1.868C4267.174,838.315,4269.385,839.128,4271.766,841.356Z" transform="translate(-4209.406 -756.44)" fill="#d2d6d9"/>
    <path id="Trazado_4180" data-name="Trazado 4180" d="M4224.227,850.5c-1.392,1.366-2.689,2.615-4.365,2.23-1.284-.3-3.473-.733-3.083-2.506.268-1.228,2.168-2.131,3.7-1.985A6.428,6.428,0,0,1,4224.227,850.5Z" transform="translate(-4201.355 -757.973)" fill="#d2d6d9"/>
    <path id="Trazado_4181" data-name="Trazado 4181" d="M4239.971,850.537c-2.22,2.366-4.381,2.986-6.9.9-.711-.589-.73-1.114-.114-1.648C4235.362,847.711,4237.623,848.066,4239.971,850.537Z" transform="translate(-4204.042 -758.009)" fill="#e2e9eb"/>
    <path id="Trazado_4182" data-name="Trazado 4182" d="M4236.1,838.963c1.451.473,3.586.953,3.586,2.237,0,1.663-2.169,2.4-3.7,2.387-1.356-.014-3.425-.694-3.359-2.294C4232.688,839.779,4234.748,839.527,4236.1,838.963Z" transform="translate(-4204.062 -756.396)" fill="#d2d6d9"/>
    <path id="Trazado_4183" data-name="Trazado 4183" d="M4266.438,821.677c2.689-2.948,5.092-2.773,7.517-.231C4270.563,824.639,4270.563,824.639,4266.438,821.677Z" transform="translate(-4209.82 -753.082)" fill="#e2e9eb"/>
    <path id="Trazado_4184" data-name="Trazado 4184" d="M4232.307,859.777c2.555-3.007,5-2.636,7.634-.043C4237.316,862.421,4234.875,862.742,4232.307,859.777Z" transform="translate(-4204.007 -759.579)" fill="#e2e9eb"/>
    <path id="Trazado_4185" data-name="Trazado 4185" d="M4290.271,826.135c2.573-2.838,5.042-2.578,7.64-.026C4295.327,828.976,4292.86,829.3,4290.271,826.135Z" transform="translate(-4213.879 -753.865)" fill="#e2e9eb"/>
    <path id="Trazado_4186" data-name="Trazado 4186" d="M4274.314,835.345c2.227-2.3,4.392-2.991,6.923-.888.677.561.83,1.068.156,1.629C4278.992,838.09,4276.705,837.945,4274.314,835.345Z" transform="translate(-4211.16 -755.414)" fill="#e2e9eb"/>
    <path id="Trazado_4187" data-name="Trazado 4187" d="M4286.114,819.2c1.442.572,3.53.886,3.565,2.36.037,1.5-2.052,2.172-3.417,2.212-1.4.04-3.453-.709-3.508-2.137C4282.694,820.067,4284.847,819.87,4286.114,819.2Z" transform="translate(-4212.599 -753.032)" fill="#e2e9eb"/>
    <path id="Trazado_4188" data-name="Trazado 4188" d="M4255.974,841.384c-1.437,1.332-2.761,2.578-4.416,2.208-1.275-.285-3.475-.742-3.045-2.531.292-1.206,2.171-2.151,3.731-1.945A6.614,6.614,0,0,1,4255.974,841.384Z" transform="translate(-4206.759 -756.418)" fill="#d2d6d9"/>
    <path id="Trazado_4189" data-name="Trazado 4189" d="M4247.888,845.829c-2.059,2.381-4.234,3.117-6.846,1.065-.912-.717-.694-1.355.02-1.99C4243.7,842.556,4245.754,844.184,4247.888,845.829Z" transform="translate(-4205.393 -757.208)" fill="#e2e9eb"/>
    <path id="Trazado_4190" data-name="Trazado 4190" d="M4282.318,817.086a26.609,26.609,0,0,1-3.054,1.879c-1.758.767-3.151-.48-4.581-1.165-.446-.214-.233-1.039.261-1.391,1.338-.95,2.673-2.155,4.479-1.3A23.338,23.338,0,0,1,4282.318,817.086Z" transform="translate(-4211.183 -752.285)" fill="#e2e9eb"/>
    <path id="Trazado_4191" data-name="Trazado 4191" d="M4263.751,836.9c-2.962,2.768-5.407,2.675-7.772-.052C4258.615,833.976,4261.139,834.19,4263.751,836.9Z" transform="translate(-4208.04 -755.684)" fill="#e2e9eb"/>
    <path id="Trazado_4192" data-name="Trazado 4192" d="M4240.04,836.817c2.881-2.739,5.329-2.642,7.757.042C4245.206,839.683,4242.692,839.691,4240.04,836.817Z" transform="translate(-4205.324 -755.688)" fill="#e2e9eb"/>
    <path id="Trazado_4193" data-name="Trazado 4193" d="M4258.586,826.2c2.052-2.419,4.244-2.794,6.7-.776.632.52.768,1.086.058,1.657C4262.808,829.12,4260.625,828.524,4258.586,826.2Z" transform="translate(-4208.485 -753.869)" fill="#e2e9eb"/>
    <path id="Trazado_4194" data-name="Trazado 4194" d="M4281.991,825.962a3.684,3.684,0,0,1-3.135,2.246c-1.711.337-3.638-.414-4.019-1.921-.348-1.361,1.7-1.884,2.878-2.2C4279.462,823.609,4280.722,824.885,4281.991,825.962Z" transform="translate(-4211.245 -753.845)" fill="#e2e9eb"/>
    <path id="Trazado_4195" data-name="Trazado 4195" d="M4266.5,830.756c2.623-2.792,5.061-2.732,7.581.035C4271.479,833.653,4269.039,833.625,4266.5,830.756Z" transform="translate(-4209.832 -754.647)" fill="#e2e9eb"/>
    <path id="Trazado_4196" data-name="Trazado 4196" d="M4282.308,830.761c2.364-2.482,4.613-2.7,7.008-.709.7.581.5,1.07-.146,1.6C4286.673,833.689,4284.49,833.166,4282.308,830.761Z" transform="translate(-4212.523 -754.651)" fill="#e2e9eb"/>
    <path id="Trazado_4197" data-name="Trazado 4197" d="M4231.961,855.142c-2.593,2.721-5.042,2.881-7.574.007C4226.964,852.183,4229.411,852.411,4231.961,855.142Z" transform="translate(-4202.66 -758.788)" fill="#e2e9eb"/>
    <path id="Trazado_4198" data-name="Trazado 4198" d="M4224.348,846.08c2.5-2.917,4.91-2.76,7.4-.371C4228.81,848.94,4228.383,848.974,4224.348,846.08Z" transform="translate(-4202.653 -757.238)" fill="#e2e9eb"/>
    <path id="Trazado_4199" data-name="Trazado 4199" d="M4256.919,765.571c2.06,8.565.614,17.267,1.01,25.9.064,1.43-.848,2.181-2,2.847-11.885,6.87-23.775,13.729-35.6,20.7-3.032,1.788-3.962,1.265-3.866-2.312.217-8.118.137-16.243.178-24.366,1.705-.879,3.452-1.693,5.118-2.643Q4239.351,775.655,4256.919,765.571Zm-16.481,30.037a4.43,4.43,0,0,0-4.089,2.362,4.953,4.953,0,0,0,4.377-2.076l.29-.573Zm-8.777-1.333a4.32,4.32,0,0,0,3.981-2.379,5.2,5.2,0,0,0-4.352,2.022,11.178,11.178,0,0,0-1.147.863c-.057.052.139.569.271.594C4231.255,795.534,4231.43,794.858,4231.661,794.275Zm9.532-11.945c-3.8.643-6.554,3.01-9.3,5.4a23.851,23.851,0,0,0,9.671-5.042c1.283-.566,2.874-.685,3.65-2.76C4243.3,780.22,4241.839,780.5,4241.192,782.33Zm-10.506,20.021,4.764-3.187C4233.086,799.185,4230.887,799.368,4230.686,802.351Zm5.7-10.8c2.286-.456,3.761-1.027,4.522-2.741C4239.191,789,4237.525,789.262,4236.382,791.547Zm5.5-3.141c2.339-.639,3.783-.888,4.41-2.91A5.265,5.265,0,0,0,4241.879,788.406Z" transform="translate(-4201.309 -743.899)" fill="#27a2da"/>
    <path id="Trazado_4200" data-name="Trazado 4200" d="M4256.943,764.8q-17.577,10.065-35.161,20.119c-1.666.951-3.413,1.765-5.119,2.643-.344-2.453.588-3.925,2.862-5.211,12.327-6.969,24.536-14.144,36.864-21.295C4257.711,762.26,4257.456,763.512,4256.943,764.8Z" transform="translate(-4201.332 -743.13)" fill="#27a2da"/>
    <path id="Trazado_4201" data-name="Trazado 4201" d="M4244.735,786.13a23.89,23.89,0,0,1-9.671,5.04c2.743-2.39,5.495-4.757,9.3-5.4A2.63,2.63,0,0,1,4244.735,786.13Z" transform="translate(-4204.478 -747.338)" fill="#27a2da"/>
    <path id="Trazado_4202" data-name="Trazado 4202" d="M4233.605,809.246c.2-2.984,2.4-3.167,4.765-3.187Z" transform="translate(-4204.229 -750.793)" fill="#27a2da"/>
    <path id="Trazado_4203" data-name="Trazado 4203" d="M4240.469,796.315c1.144-2.284,2.81-2.55,4.523-2.741C4244.231,795.288,4242.756,795.859,4240.469,796.315Z" transform="translate(-4205.396 -748.667)" fill="#27a2da"/>
    <path id="Trazado_4204" data-name="Trazado 4204" d="M4247.1,792.5a5.263,5.263,0,0,1,4.411-2.91C4250.881,791.608,4249.435,791.857,4247.1,792.5Z" transform="translate(-4206.526 -747.988)" fill="#27a2da"/>
    <path id="Trazado_4205" data-name="Trazado 4205" d="M4234.333,799.319a5.209,5.209,0,0,1,4.354-2.02,4.325,4.325,0,0,1-3.983,2.379A2.814,2.814,0,0,1,4234.333,799.319Z" transform="translate(-4204.353 -749.302)" fill="#27a2da"/>
    <path id="Trazado_4206" data-name="Trazado 4206" d="M4246.27,785.276c.646-1.828,2.1-2.11,4.024-2.4-.779,2.075-2.369,2.194-3.65,2.761A2.61,2.61,0,0,0,4246.27,785.276Z" transform="translate(-4206.385 -746.845)" fill="#27a2da"/>
    <path id="Trazado_4207" data-name="Trazado 4207" d="M4244.809,802.06a4.95,4.95,0,0,1-4.375,2.075,4.428,4.428,0,0,1,4.088-2.362Z" transform="translate(-4205.392 -750.063)" fill="#27a2da"/>
    <path id="Trazado_4208" data-name="Trazado 4208" d="M4234.468,800.092c-.23.583-.406,1.259-1.246,1.1-.132-.025-.328-.542-.271-.594a11.5,11.5,0,0,1,1.145-.864A2.65,2.65,0,0,0,4234.468,800.092Z" transform="translate(-4204.116 -749.716)" fill="#27a2da"/>
    <path id="Trazado_4209" data-name="Trazado 4209" d="M4245.36,801.714l.579-.287c-.1.191-.193.382-.289.573Z" transform="translate(-4206.231 -750.004)" fill="#27a2da"/>
  </g>
  <g id="Grupo_2667" data-name="Grupo 2667" transform="translate(138.209 32.734)">
    <g id="Grupo_2664" data-name="Grupo 2664" transform="translate(0 0)">
      <path id="Trazado_4210" data-name="Trazado 4210" d="M4506.371,999.015c-4.772-4.149-9.371-8.513-14.389-12.376-1.236-.951-1.038-2.075-1.126-3.238-.107-1.431.313-2.948-.738-4.212,3.935-.8,3.846-3.089,2.853-6.368-4.089-13.528-7.932-27.13-11.888-40.7-.262-.895-.949-1.724,0-2.741,1.391.951,1.3,2.562,1.681,3.869,4.013,13.678,7.935,27.384,11.97,41.056.281.946.2,2.969,2.026,2.347,1.506-.512.416-1.835.14-2.812q-5.338-19-10.714-37.989c-.237-.833-.874-2.062-.392-2.41,2.965-2.138.017-2.943-.862-4.1-.814-1.066-1.912-1.909-2.82-2.906-1.326-1.454-2.463-2.476-4.621-.93-1.928,1.382-3.363,2.229-2.448,5.16,2.683,8.609,5.118,17.3,7.372,26.033,1.855,7.185,4.653,14.13,5.574,21.555-1.183.3-1.46-.478-1.643-1.371-.708-2.809-1.318-5.646-2.144-8.42-3.208-10.792-5.717-21.787-9.409-32.438a18.823,18.823,0,0,0-.591-3.2c-1.265-3.43-1.967-6.61,2.365-8.481.239-.1.2-.847.292-1.292h5.164a2.575,2.575,0,0,0,1.049,2.2q10.107,9.974,20.211,19.95c6.9,6.98,13.843,13.911,20.65,20.977,1.509,1.57,2.763.908,4.26.383,7.591-2.665,15.224-5.221,22.773-8,2.564-.943,4.579-.811,6.28,1.416,7.435,7.343,15.574,13.941,22.742,21.563-1.721,1.024-2.374-.717-3.181-1.446q-10.515-9.5-20.826-19.22a3.665,3.665,0,0,0-4.2-.843q-28.2,9.551-56.394,19.079c-3.742,1.269-4.295,3.661-1.324,6.431,3.853,3.595,8.008,6.871,11.841,10.486,2.7,2.543,5.075,5.433,8.81,1.682a3.409,3.409,0,0,1,.13,3.144c-.354,1.33-.626,2.558.663,3.68q14.713,12.79,29.365,25.655c1.327,1.163,2.582,1.194,4.351.706,11.262-3.106,22.586-5.992,33.887-8.959,6.716-1.763,13.439-3.5,20.137-5.326a9.49,9.49,0,0,0,6.111-5.445c.716-1.711-2.194-2.851-3.564-4.133-8.066-7.541-16.216-14.992-24.262-22.554-.789-.742-2.589-1.238-1.64-3.035,5.544,4.008,10.347,8.918,15.327,13.529,4.909,4.549,9.752,9.222,14.73,13.719,2.174,1.967,1.72,2.783-.052,4.8-5.886,6.71-14.363,6.688-21.921,8.862-12.709,3.659-25.577,6.757-38.369,10.131-2.671.706-4.445.108-6.8-1.8-4.857-3.936-9.146-8.5-14.1-12.351-2.952-2.3-6.329-4.472-8.6-7.724-1.408-2.009-3.691-3-5.961-4.327M4497.2,945.36l-5.452-6.024c.752-.249,1.645.349,2.21-.247l-4.229-4.691c-.964,1.721.949,2.207.988,3.355l-2.654-.726c3.454,12.429,6.826,24.63,10.257,36.814.306,1.078.563,2.368,2.454,1.719,6.393-2.2,12.841-4.24,19.269-6.342l.843-1.125c-3.909-3.536-7.86-7.027-11.7-10.64-.95-.895-2.481-1.56-2.234-3.322,1.377-.165,1.827,1.05,2.56,1.781,3.818,3.814,7.583,7.685,11.407,11.492.5.5.911,1.648,1.526,1.18-8.5-8.58-17.042-17.2-25.528-25.762C4496.509,943.442,4498.648,944.38,4497.2,945.36Z" transform="translate(-4473.235 -923.057)" fill="#0c0c0c"/>
      <path id="Trazado_4211" data-name="Trazado 4211" d="M4586.6,994.46c-.946,1.8.852,2.293,1.64,3.035,8.045,7.562,16.2,15.013,24.263,22.554,1.372,1.283,4.281,2.423,3.564,4.134a9.489,9.489,0,0,1-6.109,5.446c-6.7,1.827-13.423,3.563-20.14,5.326-11.3,2.967-22.624,5.853-33.885,8.959-1.771.488-3.025.456-4.354-.707q-14.665-12.846-29.361-25.655c-1.292-1.123-1.021-2.351-.663-3.681a3.413,3.413,0,0,0-.131-3.144c-3.734,3.751-6.111.861-8.811-1.682-3.833-3.615-7.986-6.891-11.841-10.486-2.973-2.77-2.417-5.162,1.324-6.432q28.187-9.561,56.394-19.078a3.666,3.666,0,0,1,4.2.843q10.295,9.735,20.825,19.22c.809.729,1.459,2.47,3.179,1.446Zm-58.843,1.137c-1.054.451-2.177,1.293-3.352,1.369-3.847.25-2.187,1.64-.768,3.069,1.706,1.716,3.369,3.477,5.139,5.122a8.97,8.97,0,0,0,2.962,2.054c1.872.636,3.538-.417,5.083-1.351a1.2,1.2,0,0,0,.094-1.925c-2.624-2.687-5.3-5.324-7.992-7.948C4528.684,995.758,4528.236,995.749,4527.752,995.6Zm-24.284-.831.5,1.316,51.933-16.987-.41-1.242Q4529.483,986.31,4503.469,994.766Zm93.141,17.045a36.929,36.929,0,0,0-9.95-9.293A35.526,35.526,0,0,0,4596.609,1011.811Zm-20.656-19.157a29.97,29.97,0,0,0-9.192-8.476C4569.372,987.518,4572.165,990.636,4575.953,992.655Zm1.052,1.17c2.538,2.932,4.864,6.139,8.622,7.681C4583.18,998.467,4580.646,995.539,4577,993.824Zm19.919,18.468c2.486,2.975,4.956,5.947,8.566,7.545C4603,1016.878,4600.541,1013.9,4596.924,1012.293Zm-36.186-33.643a10.133,10.133,0,0,0,6.292,5.452C4565.015,981.539,4563.292,979.651,4560.738,978.65Zm49.234,46.338c.069-2.8-2.106-3.627-3.81-4.951l-.7.726Z" transform="translate(-4479.946 -936.065)" fill="#7f7f7f"/>
      <path id="Trazado_4212" data-name="Trazado 4212" d="M4488.523,978.855c-.921-7.425-3.717-14.37-5.573-21.555-2.253-8.732-4.687-17.425-7.372-26.034-.914-2.931.521-3.778,2.449-5.159,2.159-1.547,3.294-.525,4.619.929.911,1,2.009,1.84,2.822,2.906.878,1.154,3.829,1.958.863,4.1-.483.349.156,1.577.391,2.41q5.414,18.979,10.717,37.989c.274.976,1.365,2.3-.141,2.812-1.829.621-1.746-1.4-2.025-2.348-4.039-13.671-7.958-27.377-11.974-41.056-.382-1.306-.288-2.918-1.679-3.869-.946,1.018-.258,1.847,0,2.741,3.957,13.568,7.8,27.171,11.891,40.7.99,3.28,1.079,5.571-2.855,6.368Z" transform="translate(-4473.774 -923.654)" fill="#7f7f7f"/>
      <path id="Trazado_4213" data-name="Trazado 4213" d="M4497.012,944.292q2.728,3.012,5.449,6.021l1.376,1.3c.631.259.768,1.647,1.875.82l-.076-.054c-.351.883-.126,1.186.794.785l-.058-.057c-.364.9-.12,1.189.8.8l-.076-.074a4.029,4.029,0,0,0,3.779,3.772l-.08-.08c-.416.954-.149,1.224.808.806l-.071-.068c-.451.965-.1,1.148.788.8l-.1.023c-.248,1.762,1.281,2.427,2.233,3.322,3.834,3.613,7.787,7.1,11.7,10.639l-.843,1.126c-6.428,2.1-12.875,4.142-19.268,6.341-1.892.65-2.15-.641-2.453-1.719-3.432-12.184-6.806-24.385-10.26-36.814l2.655.727Q4496.5,943.5,4497.012,944.292Z" transform="translate(-4478.497 -928.012)" fill="#27a2da"/>
      <path id="Trazado_4214" data-name="Trazado 4214" d="M4506.961,953.674c-.46-.436-.921-.871-1.376-1.3,1.446-.978-.69-1.916-.275-2.536,8.486,8.563,17.027,17.182,25.527,25.762-.615.469-1.027-.684-1.524-1.18-3.826-3.808-7.59-7.678-11.41-11.492-.731-.731-1.181-1.946-2.557-1.781l.1-.023c.081-.6-.284-.769-.787-.8l.072.069a.744.744,0,0,0-.808-.807l.08.08a8.382,8.382,0,0,0-3.778-3.772l.076.074c-.01-.524-.249-.818-.8-.8l.057.057c.009-.54-.211-.844-.795-.785l.075.054C4508.474,953.62,4508.187,952.575,4506.961,953.674Z" transform="translate(-4481.619 -930.068)" fill="#7f7f7f"/>
      <path id="Trazado_4215" data-name="Trazado 4215" d="M4497.506,943.36q-.513-.792-1.03-1.583c-.04-1.148-1.951-1.634-.988-3.355,1.45,1.607,2.828,3.137,4.229,4.691C4499.154,943.709,4498.259,943.111,4497.506,943.36Z" transform="translate(-4478.99 -927.08)" fill="#7f7f7f"/>
      <path id="Trazado_4216" data-name="Trazado 4216" d="M4535.971,1003.706c.48.152.93.161,1.167.39,2.689,2.624,5.366,5.261,7.991,7.948a1.2,1.2,0,0,1-.1,1.925c-1.545.935-3.212,1.988-5.083,1.352a9.005,9.005,0,0,1-2.962-2.054c-1.771-1.646-3.433-3.406-5.138-5.122-1.418-1.429-3.078-2.82.768-3.069C4533.792,1005,4534.915,1004.157,4535.971,1003.706Z" transform="translate(-4488.163 -944.174)" fill="#27a2da"/>
      <path id="Trazado_4217" data-name="Trazado 4217" d="M4505.1,996.581l52.024-16.913.41,1.242L4505.6,997.9Z" transform="translate(-4481.58 -937.88)" fill="#0c0c0c"/>
      <path id="Trazado_4218" data-name="Trazado 4218" d="M4600.04,996.713c-3.79-2.019-6.582-5.137-9.192-8.475A30.032,30.032,0,0,1,4600.04,996.713Z" transform="translate(-4504.031 -940.124)" fill="#0c0c0c"/>
      <path id="Trazado_4219" data-name="Trazado 4219" d="M4582.687,980.747c2.551,1,4.278,2.889,6.292,5.452A10.135,10.135,0,0,1,4582.687,980.747Z" transform="translate(-4501.895 -938.163)" fill="#0c0c0c"/>
      <path id="Trazado_4220" data-name="Trazado 4220" d="M4511.986,958.037a8.383,8.383,0,0,1,3.779,3.772A4.024,4.024,0,0,1,4511.986,958.037Z" transform="translate(-4483.382 -932.216)" fill="#0c0c0c"/>
      <path id="Trazado_4221" data-name="Trazado 4221" d="M4507.565,954.868c1.225-1.1,1.513-.054,1.875.82C4508.333,956.515,4508.2,955.127,4507.565,954.868Z" transform="translate(-4482.225 -931.263)" fill="#0c0c0c"/>
      <path id="Trazado_4222" data-name="Trazado 4222" d="M4509.948,956.071c.581-.06.8.245.793.785C4509.82,957.256,4509.6,956.954,4509.948,956.071Z" transform="translate(-4482.807 -931.7)" fill="#0c0c0c"/>
      <path id="Trazado_4223" data-name="Trazado 4223" d="M4510.944,957.059c.555-.022.792.271.8.8C4510.824,958.248,4510.581,957.958,4510.944,957.059Z" transform="translate(-4483.067 -931.96)" fill="#0c0c0c"/>
      <path id="Trazado_4224" data-name="Trazado 4224" d="M4516.928,963.038a.742.742,0,0,1,.807.807Q4516.3,964.47,4516.928,963.038Z" transform="translate(-4484.626 -933.526)" fill="#0c0c0c"/>
      <path id="Trazado_4225" data-name="Trazado 4225" d="M4517.921,964.038c.5.032.871.2.788.8C4517.82,965.186,4517.473,965,4517.921,964.038Z" transform="translate(-4484.884 -933.788)" fill="#0c0c0c"/>
    </g>
    <path id="Trazado_4540" data-name="Trazado 4540" d="M4218.719,935.847q-2.175,2.577-4.35,5.152a2.245,2.245,0,1,1-3.43-2.89c.8-.97,1.624-1.928,2.437-2.891q3.127-3.709,6.259-7.417l.175-.209a.406.406,0,0,0,.062-.474.379.379,0,0,0-.43-.2c-.722.077-1.447.13-2.164.241a2.193,2.193,0,0,1-2.623-1.9,2.423,2.423,0,0,1,2.118-2.668c.688-.09,1.378-.152,2.067-.227q3.621-.4,7.243-.789a1.764,1.764,0,0,1,1.878,1,1.924,1.924,0,0,1,.167.69c.188,3.127.382,6.254.562,9.381a2.382,2.382,0,0,1-1.418,2.324,2.164,2.164,0,0,1-2.445-.343,2.082,2.082,0,0,1-.708-1.5c-.048-.736-.087-1.473-.135-2.21-.014-.225,0-.471-.279-.56s-.436.1-.593.289Q4220.917,933.246,4218.719,935.847Z" transform="translate(-4180.906 -851.649)" fill="#68debb"/>
  </g>
</svg>
